<?xml version="1.0" encoding="utf-8"?>
<!-- Generator: Adobe Illustrator 16.0.0, SVG Export Plug-In . SVG Version: 6.00 Build 0)  -->
<!DOCTYPE svg PUBLIC "-//W3C//DTD SVG 1.1//EN" "http://www.w3.org/Graphics/SVG/1.1/DTD/svg11.dtd">
<svg version="1.1" id="Calque_1" xmlns="http://www.w3.org/2000/svg" xmlns:xlink="http://www.w3.org/1999/xlink" x="0px" y="0px"
	 width="157.2px" height="56.8px" viewBox="0 0 157.2 56.8" style="enable-background:new 0 0 157.2 56.8;" xml:space="preserve">
<style type="text/css">
<![CDATA[
	.st0{fill:#FFFFFF;}
]]>
</style>
<g>
	<g>
		<path class="st0" d="M40.5,35.2l-1.3,0V22c0-0.4,0.3-0.7,0.7-0.7c0.3,0,0.7,0,0.7,0c3.8,0.1,6.8,3.2,6.8,6.9
			C47.5,32,44.4,35.2,40.5,35.2 M49.7,19.3c-2.3-2.4-5.5-3.8-8.8-3.9l-0.4,0l-4.2,0c-1.6,0-2.9,1.3-2.9,2.9c0,4.9,0,16.4,0,16.8
			h-5.6l-0.3,0c-3.8,0-7-3.1-7-6.9c0-3.8,3.1-7,7-7c0,0,0.1,0,0.1,0c1.6,0,2.9-1.3,2.9-2.9s-1.3-2.9-2.9-2.9c0,0-0.1,0-0.1,0
			c-7.1,0-12.8,5.7-12.8,12.8c0,3.4,1.3,6.5,3.6,8.9c2.3,2.4,5.5,3.8,8.8,3.9l0.4,0c0,0,5.5,0,6,0c0,0.3,0,4.4,0,7.7
			c0,0.2-0.1,0.3-0.3,0.4C19,49.5,8.6,40.4,8.6,28.7C8.6,16.8,18.9,8,33.7,8c3.8,0,7.4,0.7,10.7,2.1c0,0,0,0,0,0
			c1.5,0.6,3.2-0.2,3.8-1.7c0.6-1.5-0.2-3.2-1.7-3.8c0,0,0,0,0,0c-4-1.6-8.3-2.3-12.8-2.3c-8.2,0-15.9,1.9-21.7,6.9
			C6,14.4,2.7,21.3,2.7,28.7c0,7.4,3.3,14.3,9.2,19.4c5.8,5.1,13.5,6.9,21.7,6.9c0.2,0,0.7,0,0.7,0c0.7,0,1.4,0,2.1-0.1c0,0,0,0,0,0
			c1.5-0.1,2.7-1.4,2.7-2.9V41c0.3,0,0.9,0,0.9,0l0.4,0l0.5,0c3.3-0.1,6.4-1.5,8.7-3.9c2.3-2.4,3.6-5.5,3.6-8.9
			C53.3,24.9,52,21.7,49.7,19.3"/>
	</g>
	<rect x="59.2" y="26.8" class="st0" width="2.1" height="10.7"/>
	<g>
		<path class="st0" d="M66.5,34.5c-0.7,0-2.1,0.1-2.1,1c0,0.5,0.5,0.7,1,0.7c0.8,0,1.6-0.4,1.6-1.3v-0.5H66.5z M67.1,36.7L67.1,36.7
			c-0.5,0.7-1.3,1-2.2,1c-1.3,0-2.4-0.7-2.4-2.1c0-2.4,2.9-2.4,4.6-2.4c0-0.7-0.6-1.2-1.4-1.2c-0.7,0-1.3,0.3-1.7,0.8l-1.1-1.2
			c0.8-0.7,1.9-1.1,3-1.1c2.5,0,3.1,1.3,3.1,3.5v3.5h-1.9V36.7z"/>
		<path class="st0" d="M79,32.9c-0.2-0.3-0.6-0.5-1-0.5c-1.1,0-1.7,0.7-1.7,1.7c0,1,0.6,1.7,1.7,1.7c0.5,0,0.8-0.2,1-0.5l1.4,1.5
			c-0.7,0.7-1.6,0.9-2.4,0.9c-2.1,0-3.8-1.4-3.8-3.6s1.7-3.6,3.8-3.6c0.8,0,1.8,0.2,2.4,0.9L79,32.9z"/>
		<path class="st0" d="M84.7,35.8c1.1,0,1.7-0.7,1.7-1.7c0-1-0.6-1.7-1.7-1.7S83,33.1,83,34.1C83,35.1,83.6,35.8,84.7,35.8
			 M84.7,30.5c2.1,0,3.8,1.4,3.8,3.6c0,2.2-1.7,3.6-3.8,3.6c-2.1,0-3.8-1.4-3.8-3.6C80.9,31.9,82.6,30.5,84.7,30.5"/>
		<path class="st0" d="M93.5,35.8c1.1,0,1.7-0.7,1.7-1.7c0-1-0.6-1.7-1.7-1.7s-1.7,0.7-1.7,1.7C91.8,35.1,92.4,35.8,93.5,35.8
			 M89.9,30.7h2v0.9h0c0.3-0.5,1.1-1.1,2.1-1.1c2,0,3.4,1.5,3.4,3.5c0,1.9-1.2,3.7-3.1,3.7c-0.9,0-1.7-0.2-2.2-0.9h0v4h-2.1V30.7z"
			/>
		<path class="st0" d="M98.5,30.7h2.1v6.9h-2.1V30.7z M99.6,27.3c0.7,0,1.2,0.6,1.2,1.2c0,0.7-0.6,1.2-1.2,1.2
			c-0.7,0-1.2-0.6-1.2-1.2C98.3,27.8,98.9,27.3,99.6,27.3"/>
		<path class="st0" d="M106.8,33.3c0-0.7-0.5-1.3-1.3-1.3c-0.9,0-1.4,0.6-1.5,1.3H106.8z M108.6,36.3c-0.7,0.9-1.8,1.4-2.9,1.4
			c-2.1,0-3.8-1.4-3.8-3.6s1.7-3.6,3.8-3.6c2,0,3.2,1.4,3.2,3.6v0.7H104c0.2,0.8,0.8,1.3,1.6,1.3c0.7,0,1.2-0.3,1.5-0.8L108.6,36.3z
			"/>
		<path class="st0" d="M118.1,35.8c1.1,0,1.7-0.7,1.7-1.7c0-1-0.6-1.7-1.7-1.7c-1.1,0-1.7,0.7-1.7,1.7
			C116.4,35.1,117,35.8,118.1,35.8 M114.4,30.7h1.9v0.9h0c0.3-0.5,1.1-1.1,2.1-1.1c2,0,3.4,1.5,3.4,3.5c0,1.9-1.2,3.7-3.1,3.7
			c-0.9,0-1.7-0.2-2.2-0.9h0v4h-2.1V30.7z"/>
		<path class="st0" d="M123.1,30.7h2.1v1.1h0c0.5-0.8,1-1.3,2-1.3c0.2,0,0.5,0,0.7,0.1v1.9c-0.3-0.1-0.6-0.1-0.9-0.1
			c-1.6,0-1.8,0.9-1.8,2.3v2.9h-2.1V30.7z"/>
		<path class="st0" d="M128.8,30.7h2.1v6.9h-2.1V30.7z M129.8,27.3c0.7,0,1.2,0.6,1.2,1.2c0,0.7-0.5,1.2-1.2,1.2s-1.2-0.6-1.2-1.2
			C128.6,27.8,129.2,27.3,129.8,27.3"/>
	</g>
	<polygon class="st0" points="131.6,30.7 133.9,30.7 135.6,35.3 135.7,35.3 137.3,30.7 139.4,30.7 136.7,37.5 134.5,37.5 	"/>
	<g>
		<path class="st0" d="M144.8,33.3c0-0.7-0.5-1.3-1.3-1.3c-0.9,0-1.4,0.6-1.5,1.3H144.8z M143.4,27.5h2.9l-2.4,2H142L143.4,27.5z
			 M146.6,36.3c-0.7,0.9-1.8,1.4-2.9,1.4c-2.1,0-3.8-1.4-3.8-3.6s1.7-3.6,3.8-3.6c2,0,3.2,1.4,3.2,3.6v0.7H142
			c0.2,0.8,0.8,1.3,1.6,1.3c0.7,0,1.2-0.3,1.5-0.8L146.6,36.3z"/>
		<path class="st0" d="M152.9,33.3c0-0.7-0.5-1.3-1.3-1.3c-0.9,0-1.4,0.6-1.5,1.3H152.9z M154.7,36.3c-0.7,0.9-1.8,1.4-2.9,1.4
			c-2.1,0-3.8-1.4-3.8-3.6s1.7-3.6,3.8-3.6c2,0,3.2,1.4,3.2,3.6v0.7h-4.9c0.2,0.8,0.8,1.3,1.6,1.3c0.7,0,1.2-0.3,1.5-0.8L154.7,36.3
			z"/>
	</g>
	<rect x="59.2" y="16.2" class="st0" width="0.8" height="9.1"/>
	<g>
		<path class="st0" d="M65.1,22.5c-0.8,0-2.6,0.1-2.6,1.2c0,0.7,0.7,1,1.3,1c1.2,0,1.7-0.8,1.7-1.8v-0.4H65.1z M65.5,21.9v-0.1
			c0-1-0.5-1.5-1.4-1.5c-0.7,0-1.2,0.2-1.7,0.7l-0.5-0.6c0.5-0.5,1.3-0.8,2.4-0.8c1.1,0,2.1,0.6,2.1,2v2.5c0,0.4,0,1,0.1,1.3h-0.8
			c0-0.3-0.1-0.6-0.1-0.9h0c-0.5,0.7-1.1,1.1-2,1.1c-1,0-1.9-0.6-1.9-1.7c0-1.8,2.2-2,3.5-2H65.5z"/>
		<path class="st0" d="M75.6,21c-0.3-0.4-0.8-0.7-1.4-0.7c-1.3,0-2.1,1-2.1,2.2s0.8,2.3,2.1,2.2c0.6,0,1.1-0.3,1.4-0.7l0.6,0.5
			c-0.6,0.7-1.3,1-2.1,1c-1.8,0-3-1.3-3-3c0-1.7,1.1-3,3-3c0.8,0,1.5,0.3,2.1,1L75.6,21z"/>
		<path class="st0" d="M81.4,25.3c0-0.3,0-0.6,0-0.9h0c-0.3,0.6-1.1,1-1.9,1c-1.4,0-2.1-0.8-2.1-2.2v-3.6h0.8v3.1
			c0,1.3,0.3,1.9,1.5,1.9c0.2,0,1.7-0.1,1.7-2.2v-2.9h0.8v4.4c0,0.3,0,0.8,0.1,1.2H81.4z"/>
	</g>
	<rect x="84.2" y="16.2" class="st0" width="0.8" height="9.1"/>
	<g>
		<path class="st0" d="M89.8,20.4h-1.6v3.3c0,0.8,0.3,1,0.8,1c0.3,0,0.6-0.1,0.8-0.2l0,0.7c-0.3,0.1-0.7,0.2-1.1,0.2
			c-0.6,0-1.4-0.3-1.4-1.5v-3.6h-1.2v-0.7h1.2v-1.6h0.8v1.6h1.6V20.4z"/>
		<path class="st0" d="M95,25.3c0-0.3,0-0.6,0-0.9h0c-0.3,0.6-1.1,1-1.9,1c-1.4,0-2.1-0.8-2.1-2.2v-3.6h0.8v3.1
			c0,1.3,0.3,1.9,1.5,1.9c0.2,0,1.7-0.1,1.7-2.2v-2.9h0.8v4.4c0,0.3,0,0.8,0.1,1.2H95z"/>
		<path class="st0" d="M97.7,21.4c0-0.5,0-0.9,0-1.8h0.8v1h0c0.2-0.6,0.8-1.2,1.8-1.2c0.2,0,0.4,0,0.6,0.1l-0.2,0.8
			c-0.1,0-0.2-0.1-0.5-0.1c-1.2,0-1.8,1.1-1.8,1.8v3.2h-0.8V21.4z"/>
		<path class="st0" d="M106,22.1c0-1.1-0.7-1.8-1.8-1.8c-1,0-2,0.9-2,1.8H106z M102.2,22.7c0.1,1.1,1,2,2.1,2c0.8,0,1.5-0.5,1.8-1
			l0.6,0.5c-0.7,0.8-1.5,1.2-2.4,1.2c-1.7,0-2.9-1.3-2.9-3c0-1.7,1.2-3,2.9-3c1.7,0,2.7,1.3,2.7,2.8v0.4H102.2z"/>
		<path class="st0" d="M114.9,22.5c-0.8,0-2.6,0.1-2.6,1.2c0,0.7,0.7,1,1.3,1c1.2,0,1.7-0.8,1.7-1.8v-0.4H114.9z M115.3,21.9v-0.1
			c0-1-0.5-1.5-1.4-1.5c-0.7,0-1.2,0.2-1.7,0.7l-0.5-0.6c0.5-0.5,1.3-0.8,2.4-0.8c1.1,0,2.1,0.6,2.1,2v2.5c0,0.4,0,1,0.1,1.3h-0.8
			c0-0.3-0.1-0.6-0.1-0.9h0c-0.5,0.7-1.1,1.1-2,1.1c-1,0-1.9-0.6-1.9-1.7c0-1.8,2.2-2,3.5-2H115.3z"/>
	</g>
	<polygon class="st0" points="120.5,25.3 119.6,25.3 117.3,19.7 118.2,19.7 120,24.4 120,24.4 121.8,19.7 122.7,19.7 	"/>
	<g>
		<path class="st0" d="M128.2,22.1c0-1.1-0.7-1.8-1.8-1.8c-1,0-2,0.9-2,1.8H128.2z M124.3,22.7c0.1,1.1,1,2,2.1,2
			c0.8,0,1.5-0.5,1.8-1l0.6,0.5c-0.7,0.8-1.5,1.2-2.4,1.2c-1.7,0-2.9-1.3-2.9-3c0-1.7,1.2-3,2.8-3c1.7,0,2.7,1.3,2.7,2.8v0.4H124.3z
			"/>
		<path class="st0" d="M134.6,21c-0.3-0.4-0.8-0.7-1.4-0.7c-1.3,0-2.1,1-2.1,2.2s0.8,2.3,2.1,2.2c0.6,0,1.1-0.3,1.4-0.7l0.6,0.5
			c-0.6,0.7-1.3,1-2.1,1c-1.8,0-3-1.3-3-3c0-1.7,1.1-3,3-3c0.8,0,1.5,0.3,2.1,1L134.6,21z"/>
	</g>
</g>
</svg>
