<?xml version="1.0" encoding="utf-8"?>
<!-- Generator: Adobe Illustrator 16.0.0, SVG Export Plug-In . SVG Version: 6.00 Build 0)  -->
<!DOCTYPE svg PUBLIC "-//W3C//DTD SVG 1.1//EN" "http://www.w3.org/Graphics/SVG/1.1/DTD/svg11.dtd">
<svg version="1.1" id="Calque_1" xmlns="http://www.w3.org/2000/svg" xmlns:xlink="http://www.w3.org/1999/xlink" x="0px" y="0px"
	 width="14px" height="14px" viewBox="0 0 14 14" style="enable-background:new 0 0 14 14;" xml:space="preserve">
<style type="text/css">
<![CDATA[
	.st0{fill:#FFFFFF;}
]]>
</style>
<g>
	<path class="st0" d="M10,4.8C9.9,4.6,9.8,4.5,9.7,4.3S9.4,4.1,9.3,4.1C9.1,4,8.9,3.9,8.5,3.9c-0.4,0-0.5,0-1.5,0c-1,0-1.1,0-1.5,0
		C5.1,3.9,4.9,4,4.7,4.1C4.6,4.1,4.4,4.2,4.3,4.3C4.2,4.5,4.1,4.6,4,4.8C4,4.9,3.9,5.1,3.9,5.5c0,0.4,0,0.5,0,1.5s0,1.1,0,1.5
		C3.9,9,4,9.2,4,9.3c0.1,0.2,0.2,0.3,0.3,0.4C4.4,9.9,4.6,10,4.7,10c0.1,0.1,0.3,0.1,0.7,0.1c0.4,0,0.5,0,1.5,0c1,0,1.1,0,1.5,0
		c0.4,0,0.6-0.1,0.7-0.1C9.4,10,9.6,9.9,9.7,9.7S9.9,9.5,10,9.3C10,9.2,10.1,9,10.1,8.6c0-0.4,0-0.5,0-1.5s0-1.1,0-1.5
		C10.1,5.1,10,4.9,10,4.8z M7,9C5.9,9,5,8.1,5,7c0-1.1,0.9-2,2-2c1.1,0,2,0.9,2,2C9,8.1,8.1,9,7,9z M9,5.5C8.8,5.5,8.6,5.3,8.6,5
		S8.8,4.5,9,4.5c0.3,0,0.5,0.2,0.5,0.5S9.3,5.5,9,5.5z"/>
	<circle class="st0" cx="7" cy="7" r="1.3"/>
	<path class="st0" d="M7,0C3.1,0,0,3.2,0,7c0,3.9,3.1,7,7,7s7-3.1,7-7C14,3.2,10.9,0,7,0z M10.8,8.6c0,0.4-0.1,0.7-0.2,0.9
		c-0.1,0.3-0.2,0.5-0.4,0.7c-0.2,0.2-0.4,0.3-0.7,0.4c-0.2,0.1-0.5,0.2-0.9,0.2s-0.5,0-1.6,0c-1,0-1.2,0-1.6,0
		c-0.4,0-0.7-0.1-0.9-0.2c-0.3-0.1-0.5-0.2-0.7-0.4C3.6,10,3.5,9.8,3.4,9.6C3.3,9.3,3.2,9,3.2,8.6c0-0.4,0-0.5,0-1.6
		c0-1,0-1.2,0-1.6c0-0.4,0.1-0.7,0.2-0.9c0.1-0.3,0.2-0.5,0.4-0.7C4,3.6,4.2,3.5,4.5,3.4C4.7,3.3,5,3.3,5.4,3.2c0.4,0,0.5,0,1.6,0
		c1,0,1.2,0,1.6,0c0.4,0,0.7,0.1,0.9,0.2c0.3,0.1,0.5,0.2,0.7,0.4s0.3,0.4,0.4,0.7c0.1,0.2,0.2,0.5,0.2,0.9c0,0.4,0,0.5,0,1.6
		C10.8,8.1,10.8,8.2,10.8,8.6z"/>
</g>
</svg>
