<?xml version="1.0" encoding="utf-8"?>
<!-- Generator: Adobe Illustrator 16.0.0, SVG Export Plug-In . SVG Version: 6.00 Build 0)  -->
<!DOCTYPE svg PUBLIC "-//W3C//DTD SVG 1.1//EN" "http://www.w3.org/Graphics/SVG/1.1/DTD/svg11.dtd">
<svg version="1.1" id="Calque_1" xmlns="http://www.w3.org/2000/svg" xmlns:xlink="http://www.w3.org/1999/xlink" x="0px" y="0px"
	 width="100px" height="100px" viewBox="0 0 100 100" style="enable-background:new 0 0 100 100;" xml:space="preserve">
<style type="text/css">
<![CDATA[
	.st0{fill:#EAD518;}
	.st1{fill:#00000C;}
]]>
</style>
<g>
	<g>
		<g>
			<path class="st0" d="M0,50C0,22.4,22.4,0,50,0c27.6,0,50,22.4,50,50c0,27.6-22.4,50-50,50C22.4,100,0,77.6,0,50"/>
			<path class="st1" d="M51.5,20.9c-5.2,0-10.1,2.4-13.4,6.4c-2.2-1.6-4.9-2.5-8-2.5c-8.5,0-16.1,6.8-17.2,15.5
				c-0.8,5.8,2.5,14.5,13.2,14.8c0.1,0,0.2,0,0.3,0c2,0,4-0.5,6-1.3c1.4-0.5,2.4-1,3.1-1.5c0.7-0.4,1.3-0.5,2-0.5
				c0.9,0,1.8,0.3,2.6,1l0,0c2,1.6,4.5,2.7,7.2,3.2c1,0.2,1.9,0.3,2.9,0.3c2.9,0,5.7-0.7,8.2-2.1l18.2,0c6.7,0,10.2-4.4,10.6-7.1
				c0.7-5.6-5.2-6.9-7.6-7.3c2.4-0.4,6.6-1.4,7.3-6.5c0.4-3-1.6-6.7-6.4-6.7c0,0-7.3,0-12.8,0c-2.7-0.3-5.4-1.8-6.7-2.6
				c-1.9-1.3-4.1-2.3-6.5-2.7C53.5,21,52.5,20.9,51.5,20.9 M61.6,39c-1.1-2-3.4-4.3-9.6-6.3c-5.1-1.6-5.9-3.1-5.6-5.1
				c0.2-2,3.5-4.6,7.2-4.6c0.7,0,1.4,0.1,2.1,0.3c8.6,2.5,7.9,11,6.1,15.4L61.6,39z M25.4,53.6c-1.9,0-2.8-1.1-2.4-3.3L26.3,30
				c0.4-2.4,1.6-3.5,3.8-3.5c2.1,0,2.8,1.1,2.3,3.6l-3.3,20.2C28.7,52.6,27.7,53.6,25.4,53.6 M71.5,38.5l1.5-9.6
				c0.2-1,0.6-1.1,1.5-1.1c0.1,0,0.2,0,0.2,0c3.7,0,4.6,0.6,4.3,2.8l-0.8,5.2c-0.3,1.8-1.6,2.8-3.7,2.8H71.5z M49.5,54.2
				c-0.5,0-0.9,0-1.4-0.1c-7.3-1-9-7-9.4-10.9l0-3c1.7,2.4,6.4,3.6,9.4,4.2c7.8,1.6,9.9,2.7,9.6,4.9C57.4,51.5,54,54.2,49.5,54.2
				 M70.5,52.6c-0.8,0-1.2-0.2-1.1-1.3l1.7-10.9h3.2c2.1,0,3.2,1.2,2.9,3.2l-0.9,5.9C76,52,74.8,52.6,70.5,52.6"/>
			<path class="st1" d="M30.4,63.9c-0.7,0-1.2,0.2-1.7,0.7c-0.5,0.5-0.7,1-0.7,1.7c0,0.7,0.2,1.2,0.7,1.7c0.5,0.5,1,0.7,1.7,0.7
				c0.7,0,1.2-0.2,1.7-0.7c0.5-0.5,0.7-1,0.7-1.7c0-0.7-0.2-1.2-0.7-1.7C31.6,64.1,31.1,63.9,30.4,63.9 M30.4,68.3
				c-0.6,0-1-0.2-1.4-0.6c-0.4-0.4-0.6-0.9-0.6-1.4c0-0.6,0.2-1,0.6-1.4c0.4-0.4,0.9-0.6,1.4-0.6c0.6,0,1,0.2,1.4,0.6
				c0.4,0.4,0.6,0.9,0.6,1.4c0,0.6-0.2,1-0.6,1.4C31.4,68.1,31,68.3,30.4,68.3"/>
			<path class="st1" d="M36.2,63.9H35v4.7h0.4V67h0.7l1.1,1.6h0.5L36.5,67c0.2-0.1,0.4-0.2,0.6-0.4c0.3-0.3,0.5-0.7,0.5-1.1
				c0-0.4-0.2-0.8-0.5-1.1C36.9,64.1,36.6,64,36.2,63.9 M35.4,66.7v-2.3h0.7c0.3,0,0.6,0.1,0.8,0.3c0.2,0.2,0.3,0.5,0.3,0.8
				c0,0.3-0.1,0.6-0.3,0.8c-0.2,0.2-0.5,0.3-0.8,0.3H35.4z"/>
			<path class="st1" d="M41.9,63.9c-0.7,0-1.2,0.2-1.7,0.7c-0.5,0.5-0.7,1-0.7,1.7c0,0.7,0.2,1.2,0.7,1.7c0.5,0.5,1,0.7,1.7,0.7
				c0.6,0,1.2-0.2,1.7-0.7l-0.3-0.3c-0.4,0.4-0.9,0.5-1.4,0.5c-0.6,0-1-0.2-1.4-0.6c-0.4-0.4-0.6-0.9-0.6-1.4c0-0.6,0.2-1,0.6-1.4
				c0.4-0.4,0.9-0.6,1.4-0.6c0.5,0,1,0.2,1.4,0.5l0.3-0.3C43.1,64.1,42.5,63.9,41.9,63.9"/>
		</g>
		<polygon class="st1" points="48.2,63.9 47.8,63.9 47.8,66.2 46,66.2 46,63.9 45.6,63.9 45.6,68.6 46,68.6 46,66.6 47.8,66.6 
			47.8,68.6 48.2,68.6 		"/>
		<polygon class="st1" points="52.9,63.9 50.4,63.9 50.4,68.6 52.9,68.6 52.9,68.2 50.8,68.2 50.8,66.5 52.9,66.5 52.9,66.1 
			50.8,66.1 50.8,64.3 52.9,64.3 		"/>
		<g>
			<path class="st1" d="M56.1,63.9c-0.3,0-0.5,0.1-0.7,0.3c-0.2,0.2-0.3,0.4-0.3,0.7c0,0.3,0.1,0.5,0.3,0.7c0.2,0.2,0.5,0.4,0.8,0.5
				c0.3,0.1,0.5,0.3,0.7,0.4c0.2,0.2,0.3,0.4,0.3,0.7c0,0.3-0.1,0.5-0.3,0.7c-0.2,0.2-0.4,0.3-0.7,0.3c-0.3,0-0.5-0.1-0.7-0.3
				c-0.2-0.2-0.3-0.4-0.3-0.7l-0.4,0.1c0,0.3,0.2,0.6,0.4,0.8c0.3,0.3,0.6,0.4,1,0.4c0.4,0,0.7-0.1,1-0.4c0.3-0.3,0.4-0.6,0.4-1
				c0-0.4-0.1-0.7-0.4-1c-0.3-0.3-0.6-0.5-1-0.6c-0.2-0.1-0.4-0.2-0.5-0.3c-0.1-0.1-0.2-0.3-0.2-0.5c0-0.2,0.1-0.3,0.2-0.5
				c0.1-0.1,0.3-0.2,0.5-0.2c0.2,0,0.3,0.1,0.5,0.2c0.1,0.1,0.1,0.2,0.2,0.3l0.4-0.1c-0.1-0.2-0.1-0.3-0.3-0.4
				C56.6,64,56.4,63.9,56.1,63.9"/>
		</g>
		<polygon class="st1" points="61.8,63.9 59.1,63.9 59.1,64.3 60.3,64.3 60.3,68.6 60.7,68.6 60.7,64.3 61.8,64.3 		"/>
		<g>
			<path class="st1" d="M65,63.9h-1.3v4.7h0.4V67h0.7l1.1,1.6h0.5L65.3,67c0.2-0.1,0.4-0.2,0.6-0.4c0.3-0.3,0.5-0.7,0.5-1.1
				c0-0.4-0.2-0.8-0.5-1.1C65.7,64.1,65.4,64,65,63.9 M64.1,66.7v-2.3h0.7c0.3,0,0.6,0.1,0.8,0.3c0.2,0.2,0.3,0.5,0.3,0.8
				c0,0.3-0.1,0.6-0.3,0.8c-0.2,0.2-0.5,0.3-0.8,0.3H64.1z"/>
		</g>
		<polygon class="st1" points="70.8,63.9 68.3,63.9 68.3,68.6 70.8,68.6 70.8,68.2 68.7,68.2 68.7,66.5 70.8,66.5 70.8,66.1 
			68.7,66.1 68.7,64.3 70.8,64.3 		"/>
		<g>
			<path class="st1" d="M22.9,72.5c-0.3,0-0.5,0.1-0.7,0.3c-0.2,0.2-0.3,0.4-0.3,0.7c0,0.3,0.1,0.5,0.3,0.7c0.2,0.2,0.5,0.4,0.8,0.5
				c0.3,0.1,0.5,0.3,0.7,0.4c0.2,0.2,0.3,0.4,0.3,0.7c0,0.3-0.1,0.5-0.3,0.7c-0.2,0.2-0.4,0.3-0.7,0.3c-0.3,0-0.5-0.1-0.7-0.3
				c-0.2-0.2-0.3-0.4-0.3-0.7l-0.4,0.1c0,0.3,0.2,0.6,0.4,0.8c0.3,0.3,0.6,0.4,1,0.4c0.4,0,0.7-0.1,1-0.4c0.3-0.3,0.4-0.6,0.4-1
				c0-0.4-0.1-0.7-0.4-1c-0.3-0.3-0.6-0.5-0.9-0.6c-0.2-0.1-0.4-0.2-0.5-0.3c-0.1-0.1-0.2-0.3-0.2-0.5c0-0.2,0.1-0.3,0.2-0.5
				c0.1-0.1,0.3-0.2,0.5-0.2c0.2,0,0.3,0.1,0.5,0.2c0.1,0.1,0.1,0.2,0.2,0.3l0.4-0.1c-0.1-0.2-0.1-0.3-0.3-0.4
				C23.5,72.6,23.2,72.5,22.9,72.5"/>
		</g>
		<polygon class="st1" points="29.6,72.6 29.2,72.6 27.8,75 26.4,72.6 26,72.6 27.6,75.4 27.6,77.3 28,77.3 28,75.4 		"/>
		<polygon class="st1" points="35.8,72.6 35.3,72.6 33.7,75.5 32,72.6 31.5,72.6 31.6,72.7 31.6,77.3 32,77.3 32,73.4 33.7,76.3 
			35.3,73.4 35.3,77.3 35.7,77.3 35.7,72.7 		"/>
		<g>
			<path class="st1" d="M39.3,72.6H38v4.7h0.4v-1.6h0.7c0.4,0,0.8-0.2,1.1-0.5c0.3-0.3,0.5-0.7,0.5-1.1c0-0.4-0.2-0.8-0.5-1.1
				C40,72.8,39.7,72.6,39.3,72.6 M38.4,75.3V73h0.7c0.3,0,0.6,0.1,0.8,0.3c0.2,0.2,0.3,0.5,0.3,0.8c0,0.3-0.1,0.6-0.3,0.8
				c-0.2,0.2-0.5,0.3-0.8,0.3H38.4z"/>
		</g>
		<polygon class="st1" points="45.2,72.6 44.8,72.6 44.8,74.9 43,74.9 43,72.6 42.6,72.6 42.6,77.3 43,77.3 43,75.3 44.8,75.3 
			44.8,77.3 45.2,77.3 		"/>
		<g>
			<path class="st1" d="M49.7,72.5c-0.7,0-1.2,0.2-1.7,0.7c-0.5,0.5-0.7,1-0.7,1.7c0,0.7,0.2,1.2,0.7,1.7c0.5,0.5,1,0.7,1.7,0.7
				c0.7,0,1.2-0.2,1.7-0.7c0.5-0.5,0.7-1,0.7-1.7c0-0.7-0.2-1.2-0.7-1.7C51,72.8,50.4,72.5,49.7,72.5 M49.7,77c-0.6,0-1-0.2-1.4-0.6
				c-0.4-0.4-0.6-0.9-0.6-1.4c0-0.6,0.2-1,0.6-1.4c0.4-0.4,0.9-0.6,1.4-0.6c0.6,0,1,0.2,1.4,0.6c0.4,0.4,0.6,0.9,0.6,1.4
				c0,0.6-0.2,1-0.6,1.4C50.8,76.8,50.3,77,49.7,77"/>
		</g>
		<polygon class="st1" points="57.3,72.6 56.9,72.6 56.9,76.5 54.7,72.6 54.3,72.6 54.3,77.3 54.7,77.3 54.7,73.4 57,77.3 
			57.3,77.3 		"/>
		<rect x="59.6" y="72.6" class="st1" width="0.4" height="4.7"/>
		<g>
			<path class="st1" d="M64.6,72.5c-0.7,0-1.2,0.2-1.7,0.7c-0.5,0.5-0.7,1-0.7,1.7c0,0.7,0.2,1.2,0.7,1.7c0.5,0.5,0.9,0.7,1.4,0.7
				l0.2-0.1c-0.2,0.1-0.4,0.3-0.4,0.5c0,0.1,0,0.1,0,0.2h0.4l0-0.1c0-0.1,0.1-0.2,0.2-0.3c0.1,0,0.2-0.1,0.2-0.1l0.1,0
				c0.1,0,0.2,0.1,0.4,0.2c0.2,0.1,0.4,0.2,0.5,0.3l0.2,0c0.1,0,0.2,0,0.4-0.1c0.2-0.1,0.3-0.3,0.4-0.5c0-0.1,0-0.1,0-0.2h-0.4
				l0,0.1c0,0.1-0.1,0.2-0.2,0.2l-0.2,0l-0.1,0c-0.1,0-0.2-0.1-0.3-0.1l-0.4-0.2c0.3-0.1,0.6-0.3,1-0.6c0.5-0.5,0.7-1,0.7-1.7
				c0-0.7-0.2-1.2-0.7-1.7C65.9,72.8,65.3,72.5,64.6,72.5 M64.6,77c-0.6,0-1-0.2-1.4-0.6c-0.4-0.4-0.6-0.9-0.6-1.4
				c0-0.6,0.2-1,0.6-1.4c0.4-0.4,0.9-0.6,1.4-0.6c0.6,0,1,0.2,1.4,0.6c0.4,0.4,0.6,0.9,0.6,1.4c0,0.6-0.2,1-0.6,1.4
				C65.7,76.8,65.2,77,64.6,77"/>
			<path class="st1" d="M72.3,72.6h-0.4v3.2c0,0.3-0.1,0.6-0.3,0.8c-0.2,0.2-0.5,0.3-0.8,0.3s-0.6-0.1-0.8-0.3
				c-0.2-0.2-0.3-0.5-0.3-0.8v-3.2h-0.4v3.2c0,0.4,0.2,0.8,0.5,1.1c0.3,0.3,0.7,0.5,1.1,0.5c0.4,0,0.8-0.2,1.1-0.5
				c0.3-0.3,0.4-0.6,0.5-0.9V72.6z"/>
		</g>
		<polygon class="st1" points="77,72.6 74.5,72.6 74.5,77.3 77,77.3 77,76.9 74.9,76.9 74.9,75.1 77,75.1 77,74.8 74.9,74.8 
			74.9,73 77,73 		"/>
		<g>
			<path class="st1" d="M25,81.3h-0.4V86H25v0h-0.1c0.8,0,1.4-0.2,1.8-0.6c0.5-0.5,0.7-1,0.7-1.7c0-0.7-0.2-1.2-0.7-1.7
				C26.3,81.5,25.7,81.3,25,81.3L25,81.3L25,81.3z M25,85.6v-3.9c0.6,0,1.1,0.2,1.5,0.5c0.4,0.4,0.6,0.9,0.6,1.4
				c0,0.6-0.2,1-0.6,1.4C26.1,85.4,25.6,85.6,25,85.6"/>
		</g>
		<polygon class="st1" points="31.9,81.3 29.5,81.3 29.5,86 31.9,86 31.9,85.6 29.9,85.6 29.9,83.8 31.9,83.8 31.9,83.4 29.9,83.4 
			29.9,81.7 31.9,81.7 		"/>
		<g>
			<path class="st1" d="M38.4,81.3h-0.9V86h1v0c0.4,0,0.7-0.2,1-0.5c0.3-0.3,0.5-0.7,0.5-1.2c0-0.5-0.2-0.8-0.5-1.2
				c-0.2-0.2-0.4-0.3-0.5-0.4c0.2-0.2,0.3-0.4,0.3-0.6c0-0.3-0.1-0.5-0.3-0.7C38.9,81.3,38.7,81.3,38.4,81.3 M37.9,82.7v-1h0.5
				c0.2,0,0.3,0,0.4,0.1c0.1,0.1,0.2,0.2,0.2,0.4c0,0.2-0.1,0.3-0.2,0.4c-0.1,0.1-0.2,0.1-0.3,0.1H37.9z M37.9,85.6v-2.5h0.5
				c0.3,0,0.6,0.1,0.9,0.4c0.2,0.2,0.4,0.5,0.4,0.9c0,0.3-0.1,0.6-0.4,0.9c-0.2,0.2-0.5,0.4-0.7,0.4H37.9z"/>
			<path class="st1" d="M43.4,81.3h-1.3V86h0.4v-1.6h0.7l1.1,1.6h0.5l-1.1-1.7c0.2-0.1,0.4-0.2,0.6-0.4c0.3-0.3,0.5-0.7,0.5-1.1
				c0-0.4-0.2-0.8-0.5-1.1C44,81.5,43.7,81.3,43.4,81.3 M42.5,84v-2.3h0.7c0.3,0,0.6,0.1,0.8,0.3c0.2,0.2,0.3,0.5,0.3,0.8
				c0,0.3-0.1,0.6-0.3,0.8c-0.2,0.2-0.5,0.3-0.8,0.3H42.5z"/>
		</g>
		<polygon class="st1" points="49.1,81.3 46.7,81.3 46.7,86 49.1,86 49.1,85.6 47.1,85.6 47.1,83.8 49.1,83.8 49.1,83.4 47.1,83.4 
			47.1,81.7 49.1,81.7 		"/>
		<polygon class="st1" points="53.6,81.3 50.9,81.3 50.9,81.7 52.1,81.7 52.1,86 52.5,86 52.5,81.7 53.6,81.7 		"/>
		<path class="st1" d="M56.8,81L55,86h0.4l0.6-1.8h1.5l0.6,1.8h0.4L56.8,81z M56.2,83.8l0.6-1.7l0.6,1.7H56.2z"/>
		<g>
			<path class="st1" d="M62.7,81.2c-0.7,0-1.2,0.2-1.7,0.7c-0.5,0.5-0.7,1-0.7,1.7c0,0.7,0.2,1.2,0.7,1.7c0.5,0.5,1,0.7,1.7,0.7
				c0.6,0,1.2-0.2,1.6-0.7v-1.6H64v1.4c-0.3,0.3-0.8,0.4-1.2,0.4c-0.6,0-1-0.2-1.4-0.6c-0.4-0.4-0.6-0.9-0.6-1.4
				c0-0.6,0.2-1,0.6-1.4c0.4-0.4,0.9-0.6,1.4-0.6c0.5,0,1,0.2,1.4,0.6l0.3-0.3C63.9,81.4,63.4,81.2,62.7,81.2"/>
		</g>
		<polygon class="st1" points="69.6,81.3 69.2,81.3 69.2,85.1 66.9,81.3 66.6,81.3 66.6,86 67,86 67,82 69.2,86 69.6,86 		"/>
		<polygon class="st1" points="74.2,81.3 71.8,81.3 71.8,86 74.2,86 74.2,85.6 72.2,85.6 72.2,83.8 74.2,83.8 74.2,83.4 72.2,83.4 
			72.2,81.7 74.2,81.7 		"/>
	</g>
</g>
</svg>
