<?xml version="1.0" encoding="UTF-8" standalone="no"?><!DOCTYPE svg PUBLIC "-//W3C//DTD SVG 1.1//EN" "http://www.w3.org/Graphics/SVG/1.1/DTD/svg11.dtd"><svg width="100%" height="100%" viewBox="0 0 97 97" version="1.1" xmlns="http://www.w3.org/2000/svg" xmlns:xlink="http://www.w3.org/1999/xlink" xml:space="preserve" style="fill-rule:evenodd;clip-rule:evenodd;stroke-linejoin:round;stroke-miterlimit:1.41421;"><path d="M0,48.448c0,-26.757 21.691,-48.448 48.452,-48.448c26.758,0 48.449,21.691 48.449,48.448c0,26.757 -21.691,48.448 -48.449,48.448c-26.761,0 -48.452,-21.691 -48.452,-48.448" style="fill:#fff;fill-rule:nonzero;"/><g><g><clipPath id="_clip1"><rect x="12.416" y="20.28" width="72.147" height="34.09"/></clipPath><g clip-path="url(#_clip1)"><path d="M76.571,29.627l-0.798,5.008c-0.279,1.753 -1.535,2.68 -3.55,2.68l-2.937,0l1.483,-9.316c0.176,-1.102 0.699,-1.051 1.666,-1.051c3.617,0 4.473,0.541 4.136,2.679m-1.682,12.651l-0.91,5.711c-0.383,2.417 -1.488,3.02 -5.682,3.02c-0.747,0 -1.198,-0.233 -1.033,-1.274l1.674,-10.514l3.126,0c2.052,0 3.131,1.144 2.825,3.057m-18.943,5.564c-0.366,2.259 -4.371,5.283 -9.347,4.631c-7.058,-0.922 -8.725,-6.823 -9.065,-10.517l0.039,-2.916c1.68,2.34 6.191,3.456 9.081,4.038c7.578,1.535 9.641,2.624 9.292,4.764m-11.035,-21.121c0.281,-2.251 4.669,-5.393 8.961,-4.141c8.355,2.433 7.681,10.693 5.928,14.952l-0.116,0.293c-1.025,-1.917 -3.298,-4.189 -9.325,-6.115c-4.938,-1.581 -5.688,-3.038 -5.448,-4.989m-13.492,2.424l-3.225,19.585c-0.371,2.254 -1.346,3.199 -3.596,3.199c-1.859,0 -2.676,-1.053 -2.316,-3.237l3.237,-19.656c0.391,-2.363 1.558,-3.415 3.633,-3.415c2.073,0 2.669,1.09 2.267,3.524m45.749,9.25c2.366,-0.404 6.436,-1.378 7.088,-6.289c0.381,-2.903 -1.555,-6.467 -6.245,-6.467c0,0 -7.09,0.004 -12.386,0.005c-2.61,-0.295 -5.229,-1.734 -6.525,-2.484c-1.835,-1.291 -3.97,-2.213 -6.329,-2.63c-6.041,-1.069 -12.004,1.393 -15.842,5.935c-2.115,-1.544 -4.762,-2.46 -7.736,-2.46c-8.196,0 -15.571,6.623 -16.674,14.99c-0.742,5.614 2.432,14.017 12.831,14.369c2.06,0.052 4.14,-0.416 6.107,-1.27c1.313,-0.438 2.279,-0.958 3.02,-1.461c1.496,-0.781 3.016,-0.702 4.505,0.414l-0.002,-0.006c1.965,1.529 4.315,2.616 6.942,3.081c3.773,0.669 7.51,-0.042 10.721,-1.774l17.627,0.018c6.448,0 9.884,-4.266 10.231,-6.912c0.724,-5.452 -5.04,-6.655 -7.333,-7.059" style="fill:#1d1d1b;fill-rule:nonzero;"/></g></g></g><g><g><g><clipPath id="_clip2"><rect x="20.859" y="61.871" width="53.726" height="21.5"/></clipPath><g clip-path="url(#_clip2)"><path d="M29.453,62.262c-0.54,0 -1.001,0.191 -1.385,0.573c-0.384,0.384 -0.575,0.846 -0.575,1.387c0,0.543 0.191,1.006 0.575,1.389c0.384,0.386 0.845,0.576 1.385,0.576c0.542,0 1.003,-0.19 1.386,-0.576c0.382,-0.383 0.574,-0.846 0.574,-1.389c0,-0.541 -0.192,-1.003 -0.574,-1.387c-0.383,-0.382 -0.844,-0.573 -1.386,-0.573m1.662,0.3c0.459,0.458 0.69,1.012 0.69,1.66c0,0.649 -0.231,1.204 -0.69,1.662c-0.459,0.458 -1.015,0.688 -1.662,0.688c-0.65,0 -1.203,-0.23 -1.662,-0.688c-0.458,-0.458 -0.687,-1.013 -0.687,-1.662c0,-0.648 0.229,-1.202 0.687,-1.66c0.459,-0.459 1.012,-0.687 1.662,-0.687c0.647,0 1.203,0.228 1.662,0.687" style="fill:#1d1d1b;fill-rule:nonzero;"/><path d="M34.256,62.325l0,2.266l0.69,0c0.31,0 0.58,-0.11 0.8,-0.331c0.222,-0.222 0.333,-0.491 0.333,-0.804c0,-0.314 -0.111,-0.58 -0.333,-0.799c-0.22,-0.222 -0.49,-0.332 -0.8,-0.332l-0.69,0Zm0.69,2.65l-0.69,0l0,1.544l-0.383,0l0,-4.581l1.24,0c0.355,0.047 0.657,0.197 0.905,0.444c0.297,0.297 0.445,0.655 0.445,1.074c0,0.42 -0.148,0.779 -0.445,1.075c-0.205,0.206 -0.411,0.335 -0.615,0.384l1.041,1.604l-0.468,0l-1.03,-1.544Z" style="fill:#1d1d1b;fill-rule:nonzero;"/><path d="M41.935,65.654l0.286,0.258c-0.482,0.439 -1.026,0.659 -1.631,0.659c-0.65,0 -1.2,-0.229 -1.659,-0.685c-0.456,-0.456 -0.685,-1.008 -0.685,-1.657c0,-0.647 0.229,-1.198 0.685,-1.656c0.459,-0.458 1.009,-0.687 1.659,-0.687c0.605,0 1.149,0.219 1.631,0.656l-0.286,0.263c-0.399,-0.355 -0.849,-0.531 -1.345,-0.531c-0.539,0 -1,0.19 -1.382,0.571c-0.382,0.382 -0.573,0.843 -0.573,1.384c0,0.541 0.191,1.004 0.573,1.385c0.382,0.383 0.843,0.573 1.382,0.573c0.496,0 0.946,-0.177 1.345,-0.533" style="fill:#1d1d1b;fill-rule:nonzero;"/><path d="M44.6,64.525l0,1.994l-0.385,0l0,-4.581l0.385,0l0,2.206l1.729,0l0,-2.206l0.385,0l0,4.581l-0.385,0l0,-1.994l-1.729,0Z" style="fill:#1d1d1b;fill-rule:nonzero;"/><path d="M51.215,61.938l0,0.384l-1.973,0l0,1.717l1.973,0l0,0.381l-1.973,0l0,1.717l1.973,0l0,0.383l-2.356,0l0,-4.582l2.356,0Z" style="fill:#1d1d1b;fill-rule:nonzero;"/><path d="M54.418,64.053c-0.325,-0.108 -0.586,-0.26 -0.78,-0.455c-0.192,-0.194 -0.29,-0.431 -0.29,-0.708c0,-0.274 0.098,-0.511 0.296,-0.708c0.195,-0.198 0.434,-0.296 0.713,-0.296c0.279,0 0.516,0.097 0.714,0.293c0.111,0.105 0.193,0.244 0.248,0.417l-0.348,0.137c-0.044,-0.123 -0.102,-0.221 -0.173,-0.292c-0.119,-0.119 -0.268,-0.18 -0.441,-0.18c-0.173,0 -0.321,0.062 -0.442,0.183c-0.122,0.121 -0.182,0.271 -0.182,0.446c0,0.171 0.06,0.318 0.182,0.441c0.121,0.118 0.288,0.228 0.5,0.326c0.363,0.117 0.67,0.301 0.923,0.552c0.269,0.269 0.404,0.594 0.404,0.975c0,0.385 -0.136,0.711 -0.407,0.981c-0.272,0.271 -0.596,0.406 -0.978,0.406c-0.382,0 -0.709,-0.137 -0.979,-0.408c-0.214,-0.215 -0.348,-0.485 -0.396,-0.808l0.366,-0.132c0.032,0.279 0.133,0.504 0.299,0.673c0.198,0.198 0.435,0.296 0.71,0.296c0.279,0 0.516,-0.097 0.712,-0.294c0.197,-0.198 0.295,-0.435 0.295,-0.714c0,-0.276 -0.098,-0.512 -0.293,-0.708c-0.177,-0.177 -0.395,-0.318 -0.653,-0.423" style="fill:#1d1d1b;fill-rule:nonzero;"/><path d="M58.791,62.322l0,4.197l-0.383,0l0,-4.197l-1.126,0l0,-0.384l2.634,0l0,0.384l-1.125,0Z" style="fill:#1d1d1b;fill-rule:nonzero;"/><path d="M62.144,62.325l0,2.266l0.689,0c0.312,0 0.579,-0.11 0.799,-0.331c0.223,-0.222 0.334,-0.491 0.334,-0.804c0,-0.314 -0.111,-0.58 -0.334,-0.799c-0.22,-0.222 -0.487,-0.332 -0.799,-0.332l-0.689,0Zm0.689,2.65l-0.689,0l0,1.544l-0.385,0l0,-4.581l1.239,0c0.357,0.047 0.659,0.197 0.906,0.444c0.298,0.297 0.445,0.655 0.445,1.074c0,0.42 -0.147,0.779 -0.445,1.075c-0.203,0.206 -0.409,0.335 -0.614,0.384l1.041,1.604l-0.469,0l-1.029,-1.544Z" style="fill:#1d1d1b;fill-rule:nonzero;"/><path d="M68.565,61.938l0,0.384l-1.973,0l0,1.717l1.973,0l0,0.381l-1.973,0l0,1.717l1.973,0l0,0.383l-2.357,0l0,-4.582l2.357,0Z" style="fill:#1d1d1b;fill-rule:nonzero;"/><path d="M22.294,72.454c-0.326,-0.108 -0.585,-0.26 -0.779,-0.455c-0.195,-0.193 -0.29,-0.431 -0.29,-0.709c0,-0.274 0.098,-0.51 0.295,-0.706c0.196,-0.198 0.434,-0.297 0.714,-0.297c0.278,0 0.515,0.098 0.712,0.293c0.111,0.105 0.193,0.245 0.248,0.418l-0.346,0.134c-0.044,-0.122 -0.103,-0.219 -0.173,-0.289c-0.121,-0.12 -0.267,-0.181 -0.441,-0.181c-0.172,0 -0.32,0.062 -0.442,0.183c-0.123,0.122 -0.184,0.271 -0.184,0.445c0,0.172 0.062,0.32 0.185,0.441c0.119,0.12 0.285,0.229 0.499,0.327c0.362,0.117 0.669,0.302 0.921,0.553c0.27,0.268 0.404,0.593 0.404,0.975c0,0.383 -0.134,0.711 -0.406,0.981c-0.271,0.269 -0.597,0.406 -0.977,0.406c-0.383,0 -0.709,-0.137 -0.979,-0.409c-0.216,-0.215 -0.349,-0.484 -0.396,-0.808l0.366,-0.133c0.032,0.281 0.131,0.506 0.298,0.675c0.198,0.198 0.435,0.296 0.711,0.296c0.278,0 0.515,-0.098 0.712,-0.294c0.196,-0.198 0.293,-0.434 0.293,-0.714c0,-0.278 -0.097,-0.513 -0.293,-0.71c-0.177,-0.175 -0.394,-0.318 -0.652,-0.422" style="fill:#1d1d1b;fill-rule:nonzero;"/><path d="M26.735,73.073l-1.578,-2.735l0.441,0l1.33,2.306l1.33,-2.306l0.442,0l-1.581,2.735l0,1.848l-0.384,0l0,-1.848Z" style="fill:#1d1d1b;fill-rule:nonzero;"/><path d="M30.981,70.339l1.635,2.826l1.629,-2.826l0.437,0l-0.057,0.103l0,4.48l-0.383,0l0.001,-3.815l-1.627,2.815l-1.634,-2.815l0,3.815l-0.379,0l0,-4.48l-0.059,-0.103l0.438,0Z" style="fill:#1d1d1b;fill-rule:nonzero;"/><path d="M37.211,70.726l0,2.265l0.69,0c0.311,0 0.58,-0.11 0.8,-0.331c0.222,-0.222 0.333,-0.49 0.333,-0.804c0,-0.313 -0.111,-0.58 -0.333,-0.8c-0.22,-0.22 -0.489,-0.33 -0.8,-0.33l-0.69,0Zm0,2.65l0,1.545l-0.384,0l0,-4.582l1.24,0c0.356,0.048 0.66,0.196 0.906,0.444c0.297,0.297 0.445,0.654 0.445,1.073c0,0.421 -0.148,0.78 -0.445,1.075c-0.295,0.296 -0.652,0.445 -1.072,0.445l-0.69,0Z" style="fill:#1d1d1b;fill-rule:nonzero;"/><path d="M41.66,72.927l0,1.995l-0.384,0l0,-4.583l0.384,0l0,2.207l1.73,0l0,-2.207l0.384,0l0,4.583l-0.384,0l0,-1.995l-1.73,0Z" style="fill:#1d1d1b;fill-rule:nonzero;"/><path d="M48.194,70.662c-0.54,0 -1.002,0.191 -1.385,0.574c-0.384,0.383 -0.576,0.846 -0.576,1.388c0,0.541 0.192,1.005 0.576,1.389c0.383,0.382 0.845,0.575 1.385,0.575c0.542,0 1.004,-0.193 1.387,-0.575c0.383,-0.384 0.574,-0.848 0.574,-1.389c0,-0.542 -0.191,-1.005 -0.574,-1.388c-0.383,-0.383 -0.845,-0.574 -1.387,-0.574m1.662,0.301c0.46,0.458 0.689,1.012 0.689,1.661c0,0.648 -0.229,1.202 -0.689,1.661c-0.459,0.458 -1.013,0.688 -1.662,0.688c-0.649,0 -1.203,-0.23 -1.661,-0.688c-0.46,-0.459 -0.689,-1.013 -0.689,-1.661c0,-0.649 0.229,-1.203 0.689,-1.661c0.458,-0.46 1.012,-0.689 1.661,-0.689c0.649,0 1.203,0.229 1.662,0.689" style="fill:#1d1d1b;fill-rule:nonzero;"/><path d="M52.614,70.339l0.381,0l2.18,3.775l0,-3.775l0.382,0l0,4.583l-0.353,0l-2.205,-3.815l0,3.815l-0.385,0l0,-4.583Z" style="fill:#1d1d1b;fill-rule:nonzero;"/><rect x="57.763" y="70.338" width="0.383" height="4.583" style="fill:#1d1d1b;fill-rule:nonzero;"/><path d="M62.624,70.662c-0.54,0 -1.002,0.191 -1.384,0.574c-0.383,0.383 -0.575,0.846 -0.575,1.388c0,0.541 0.192,1.005 0.575,1.389c0.382,0.382 0.844,0.575 1.384,0.575c0.542,0 1.003,-0.193 1.387,-0.575c0.383,-0.384 0.574,-0.848 0.574,-1.389c0,-0.542 -0.191,-1.005 -0.574,-1.388c-0.384,-0.383 -0.845,-0.574 -1.387,-0.574m-0.304,4.311c-0.45,-0.005 -0.903,-0.234 -1.356,-0.691c-0.46,-0.456 -0.688,-1.01 -0.688,-1.658c0,-0.649 0.228,-1.203 0.687,-1.661c0.458,-0.46 1.011,-0.689 1.661,-0.689c0.649,0 1.204,0.229 1.662,0.689c0.46,0.458 0.689,1.012 0.689,1.661c0,0.648 -0.229,1.202 -0.689,1.658c-0.33,0.333 -0.641,0.53 -0.928,0.59l0.382,0.207c0.15,0.079 0.255,0.128 0.313,0.143c0.033,0.01 0.063,0.016 0.094,0.016c0.057,0 0.11,-0.016 0.164,-0.045c0.082,-0.047 0.135,-0.114 0.16,-0.206c0.007,-0.024 0.013,-0.07 0.018,-0.137l0.386,0c-0.006,0.104 -0.017,0.184 -0.033,0.239c-0.057,0.192 -0.171,0.337 -0.346,0.436c-0.107,0.062 -0.222,0.094 -0.342,0.094c-0.067,0 -0.135,-0.011 -0.203,-0.031c-0.118,-0.032 -0.281,-0.114 -0.489,-0.244c-0.185,-0.1 -0.313,-0.16 -0.387,-0.178c-0.049,-0.013 -0.097,-0.019 -0.143,-0.019c-0.081,0 -0.159,0.02 -0.233,0.064c-0.12,0.068 -0.199,0.169 -0.235,0.301c-0.007,0.019 -0.012,0.057 -0.018,0.115l-0.385,0c0.009,-0.096 0.02,-0.169 0.035,-0.219c0.063,-0.234 0.202,-0.412 0.416,-0.532l-0.192,0.097Z" style="fill:#1d1d1b;fill-rule:nonzero;"/><path d="M69.699,70.339l0.383,0l0,3.266c-0.049,0.359 -0.196,0.663 -0.445,0.91c-0.295,0.298 -0.653,0.445 -1.072,0.445c-0.42,0 -0.779,-0.148 -1.075,-0.446c-0.298,-0.297 -0.444,-0.654 -0.444,-1.071l0,-3.104l0.386,0l0,3.104c0,0.311 0.109,0.576 0.332,0.797c0.222,0.223 0.488,0.331 0.801,0.331c0.314,0 0.582,-0.108 0.802,-0.331c0.221,-0.221 0.332,-0.486 0.332,-0.797l0,-3.104Z" style="fill:#1d1d1b;fill-rule:nonzero;"/><path d="M74.584,70.339l0,0.384l-1.974,0l0,1.716l1.974,0l0,0.381l-1.974,0l0,1.718l1.974,0l0,0.384l-2.358,0l0,-4.583l2.358,0Z" style="fill:#1d1d1b;fill-rule:nonzero;"/><path d="M24.19,79.132l0,3.796c0.61,0 1.086,-0.171 1.427,-0.514c0.381,-0.38 0.572,-0.843 0.572,-1.385c0,-0.539 -0.191,-1 -0.572,-1.383c-0.341,-0.341 -0.817,-0.514 -1.427,-0.514m0,-0.387l-0.048,0c0.75,0 1.335,0.209 1.75,0.626c0.457,0.458 0.684,1.012 0.684,1.658c0,0.65 -0.227,1.203 -0.684,1.66c-0.415,0.418 -1,0.626 -1.75,0.626l0.048,0l0,0.005l-0.384,0l0,-4.581l0.384,0l0,0.006Z" style="fill:#1d1d1b;fill-rule:nonzero;"/><path d="M30.929,78.739l0,0.384l-1.974,0l0,1.717l1.974,0l0,0.38l-1.974,0l0,1.716l1.974,0l0,0.385l-2.357,0l0,-4.582l2.357,0Z" style="fill:#1d1d1b;fill-rule:nonzero;"/><path d="M36.76,80.526l0,2.41l0.61,0c0.245,-0.015 0.474,-0.134 0.686,-0.355c0.235,-0.242 0.354,-0.528 0.354,-0.859c0,-0.33 -0.117,-0.613 -0.351,-0.846c-0.235,-0.234 -0.515,-0.35 -0.846,-0.35l-0.453,0Zm0,-1.403l0,1.004l0.532,0c0.123,-0.013 0.227,-0.059 0.315,-0.141c0.097,-0.088 0.147,-0.208 0.147,-0.355c0,-0.147 -0.05,-0.269 -0.15,-0.365c-0.1,-0.095 -0.224,-0.143 -0.373,-0.143l-0.471,0Zm0.48,-0.384c0.244,0 0.452,0.087 0.626,0.26c0.173,0.175 0.259,0.386 0.259,0.632c0,0.251 -0.092,0.453 -0.271,0.604c0.133,0.028 0.296,0.148 0.489,0.359c0.309,0.311 0.462,0.686 0.462,1.128c0,0.44 -0.153,0.82 -0.462,1.139c-0.29,0.298 -0.613,0.45 -0.973,0.456l0,0.003l-0.994,0l0,-4.581l0.864,0Z" style="fill:#1d1d1b;fill-rule:nonzero;"/><path d="M41.153,79.126l0,2.266l0.689,0c0.314,0 0.58,-0.111 0.803,-0.332c0.22,-0.221 0.332,-0.49 0.332,-0.804c0,-0.313 -0.112,-0.579 -0.332,-0.799c-0.223,-0.221 -0.489,-0.331 -0.803,-0.331l-0.689,0Zm0.689,2.65l-0.689,0l0,1.544l-0.384,0l0,-4.581l1.239,0c0.358,0.049 0.661,0.197 0.908,0.445c0.296,0.296 0.446,0.652 0.446,1.072c0,0.422 -0.15,0.779 -0.446,1.076c-0.206,0.206 -0.41,0.334 -0.617,0.384l1.043,1.604l-0.467,0l-1.033,-1.544Z" style="fill:#1d1d1b;fill-rule:nonzero;"/><path d="M47.579,78.739l0,0.384l-1.975,0l0,1.717l1.975,0l0,0.38l-1.975,0l0,1.716l1.975,0l0,0.385l-2.36,0l0,-4.582l2.36,0Z" style="fill:#1d1d1b;fill-rule:nonzero;"/><path d="M50.853,79.123l0,4.197l-0.381,0l0,-4.197l-1.126,0l0,-0.384l2.636,0l0,0.384l-1.129,0Z" style="fill:#1d1d1b;fill-rule:nonzero;"/><path d="M55.636,81.233l-0.583,-1.605l-0.583,1.605l1.166,0Zm0.139,0.384l-1.449,0l-0.619,1.703l-0.407,0l1.753,-4.811l1.749,4.811l-0.407,0l-0.62,-1.703Z" style="fill:#1d1d1b;fill-rule:nonzero;"/><path d="M62.375,82.729c-0.45,0.429 -0.978,0.642 -1.584,0.642c-0.648,0 -1.199,-0.227 -1.657,-0.683c-0.457,-0.457 -0.687,-1.009 -0.687,-1.659c0,-0.646 0.23,-1.198 0.687,-1.655c0.458,-0.458 1.009,-0.687 1.657,-0.687c0.606,0 1.149,0.219 1.632,0.656l-0.287,0.265c-0.4,-0.357 -0.848,-0.533 -1.345,-0.533c-0.538,0 -0.999,0.19 -1.379,0.572c-0.382,0.382 -0.574,0.843 -0.574,1.382c0,0.542 0.192,1.005 0.574,1.387c0.38,0.383 0.841,0.572 1.379,0.572c0.463,0 0.862,-0.135 1.199,-0.407l0,-1.392l0.385,0l0,1.54Z" style="fill:#1d1d1b;fill-rule:nonzero;"/><path d="M64.491,78.739l0.381,0l2.18,3.775l0,-3.775l0.384,0l0,4.582l-0.354,0l-2.206,-3.815l0,3.815l-0.385,0l0,-4.582Z" style="fill:#1d1d1b;fill-rule:nonzero;"/><path d="M71.937,78.739l0,0.384l-1.973,0l0,1.717l1.973,0l0,0.38l-1.973,0l0,1.716l1.973,0l0,0.385l-2.356,0l0,-4.582l2.356,0Z" style="fill:#1d1d1b;fill-rule:nonzero;"/></g></g></g></g></svg>