<?xml version="1.0" encoding="utf-8"?>
<!-- Generator: Adobe Illustrator 16.0.0, SVG Export Plug-In . SVG Version: 6.00 Build 0)  -->
<!DOCTYPE svg PUBLIC "-//W3C//DTD SVG 1.1//EN" "http://www.w3.org/Graphics/SVG/1.1/DTD/svg11.dtd">
<svg version="1.1" id="Calque_1" xmlns="http://www.w3.org/2000/svg" xmlns:xlink="http://www.w3.org/1999/xlink" x="0px" y="0px"
	 width="83.8px" height="43px" viewBox="0 0 83.8 43" style="enable-background:new 0 0 83.8 43;" xml:space="preserve">
<style type="text/css">
<![CDATA[
	.st0{fill:#FFFFFF;}
]]>
</style>
<g>
	<g>
		<g>
			<path class="st0" d="M2.7,18.8c0.9,0.5,2,0.9,3.1,0.9c1.5,0,2.5-0.5,2.5-1.5c0-2.5-5.2-3.3-5.2-6.3c0-2.8,2.9-3.9,5.2-3.9
				c0.7,0,1.3,0.1,1.9,0.2l-0.3,2c-0.9-0.3-2-0.5-3-0.5c-1.6,0-2.2,0.6-2.2,1.3c0,1.6,5.2,3.2,5.2,5.7c0,2.3-1.7,4.6-5,4.6
				c-0.8,0-2-0.7-2.9-1.1L2.7,18.8z"/>
			<path class="st0" d="M12.6,18c0-4.4,3-9.9,8-9.9c0.4,0,0.9,0.1,1.4,0.2l0.8-0.5l-1.3,8.1c-0.2,1.6-0.4,2.3-0.4,2.8
				c0,0.6-0.5,1.1,0.5,1.1c0.2,0,0.7-0.4,1.2-0.6l0.1,0.4c-0.8,0.6-1.8,1.6-2.7,1.7c-0.9,0.1-1.1-0.7-1.1-1.5c0-0.7,0.4-3.3,0.6-4.7
				h-0.1c-0.8,1.9-2.7,6.2-5.3,6.2C12.9,21.3,12.6,19.4,12.6,18z M20.4,9.4c-0.3-0.1-0.6-0.2-1.2-0.2c-3.2,0-4.6,6.5-4.6,8.7
				c0,0.7,0,1.8,0.8,1.8C16.9,19.6,20.2,12.4,20.4,9.4z"/>
			<path class="st0" d="M33,9.9c-0.6-0.2-1.7-0.3-2.2-0.3c-0.7,0-1.3,0.5-1.6,1c-1,1.9-1.6,4.8-1.6,6c0,1.6,0.3,2.9,1.8,2.9
				c0.8,0,2.2-0.9,3.4-2.4l0.4,0.3c-2.2,3.3-3.5,3.9-5.1,3.9c-1.4,0-2.8-1.2-2.8-4.4c0-5.1,3.6-8.7,6.7-9c0.4,0,1.3,0,1.5,0.1
				L33,9.9z"/>
			<path class="st0" d="M43.2,17.5c-1.4,1.6-3,3.6-5.3,3.6c-2.4,0-3.3-2.5-3.3-4.6c0-3.5,3.1-8.7,7-8.7c1.3,0,2.3,0.8,2.3,2.2
				c0,3.1-3.9,5-6.6,5.9c0,0.2-0.1,0.5-0.1,0.8c0,1.3,0.4,3,2.1,3c1.1,0,3-1.7,3.6-2.4L43.2,17.5z M40,9.5c-1.5,0-2.2,2-2.8,5.4
				c2.1-0.5,4.3-2.2,4.3-4.3C41.6,9.9,41,9.5,40,9.5z"/>
			<path class="st0" d="M47.7,9.4c-0.5,0.1-0.9,0.1-1.4,0.2L46.4,9l3.9-1.1l-1.3,7.3h0.1c0.9-2,3.2-7.1,5.8-7.1
				c0.9,0,1.2,0.6,1.2,1.4c0,0.9-0.3,2.5-0.5,3.4l-0.7,3.5H55c0.8-2.1,3.9-8.2,6.6-8.2c0.8,0,1.1,0.7,1.1,1.5c0,1-0.3,2.3-0.4,3
				l-1,5.2c-0.2,0.8-0.3,1.5-0.3,1.9c0,0.3,0.4,0.2,0.6,0.2c0.4,0,1.3-0.6,1.7-0.7l0.2,0.3c-0.8,0.6-2.6,1.8-3.6,1.8
				c-0.7,0-1.2-0.5-1.2-1.2c0-0.6,0.2-1.9,0.5-3l0.6-3.2c0.2-1,0.4-2,0.4-2.5c0-0.3,0.1-0.9-0.4-0.9c-1.4,0-5.4,8.9-5.9,10.3
				l-1.7,0.2l1.2-6.8c0.2-1.6,0.4-2.9,0.4-3.4c0-0.2-0.1-0.6-0.4-0.6c-1.9,0-5.1,8.6-5.5,10.6L46,21.1L47.7,9.4z"/>
		</g>
		<g>
			<path class="st0" d="M58.5,30.7c0.4-0.7,1.1-1.4,1.7-2c0.1-0.1,0.1-0.2,0.1-0.3c0.1-0.2,0.4,0,0.5-0.1c0.3-0.4,0.7-0.8,1.1-1
				c0.2-0.5,0.7-0.7,1.1-1c0.3-0.2,0.5-0.7,0.9-0.6c0.4,0.5,0.8-0.4,1.2-0.5c0.8-0.5,1.7-1.1,2.5-1.7c0.1-0.2,0.2-0.4,0.2-0.6
				c0.3-0.1,0.2,0.2,0.3,0.3c-0.2,0.3,0,0.6,0.1,0.8c0.2,0.2,0.4,0.1,0.7,0.1c0.8-0.2,0.3-1.1,0.6-1.6c-0.1-0.1,0-0.2-0.1-0.4
				c0.3-0.5,0-1,0.2-1.5c-0.3-0.4,0.3-0.7,0-1c0-0.2,0.3-0.6,0.1-0.9c0.2-0.2-0.1-0.5,0.2-0.7c-0.1-0.4,0-0.8,0.2-1
				c0-0.4-0.2-0.9,0.2-1.2c-0.1-0.4,0.3-0.6,0.2-1c0.3-0.4,0.3-1,0.1-1.3c-0.2-0.1-0.5,0-0.7,0.1c-0.1,0.7-0.7,0-1,0.5
				c-0.2,0.1-0.1,0.4-0.4,0.4c-0.3-0.2,0-0.6,0.1-0.9c0.3-0.2,0-0.5,0.2-0.7c0-0.2-0.2-0.5-0.1-0.7c0-0.6,0.1-1.2,0.6-1.5
				c0.3-0.3,0.8-0.1,1.1-0.5c0.3-0.1,0.5-0.3,0.9-0.2C71.4,9.7,72,9.7,72,9.3c0.2-0.7,0.4-1.3,0.6-2c0.2-0.1,0-0.4,0.2-0.6
				c0.1-0.5,0.3-0.9,0.3-1.3c0.4-0.4,0-1,0.4-1.4c0.1-0.3-0.1-0.6,0.1-0.7c0-0.3,0.1-0.6,0-0.9c0.3-0.2,0.7,0,0.9-0.2
				c0.3,0,0.7,0.1,1-0.1c0.6,0.4,0.9-0.4,1.4-0.1c0.5-0.1,1.3,0,1.7-0.3c0.2,0,0.5,0.1,0.7-0.1c0.6-0.1,1.3,0.1,1.8-0.2
				c0.4,0,0.8-0.1,1.2,0l0.1,0.2c-0.2,0.4-0.5,0.7-0.4,1.2c-0.2,0.3-0.4,0.7-0.8,1c-0.2,0-0.3-0.3-0.5-0.1c-0.2,0.3,0.2,0.4,0.1,0.6
				c-0.3-0.1-0.8-0.1-1.1-0.3c-0.5-0.2-0.8,0.5-1.3,0.2C78,4.4,77.2,4,76.8,4.7c-0.3,0.1-0.7,0-0.7,0.4c-0.2,0.2-0.4,0.1-0.6,0.2
				c-0.4,0.3-1,0.3-1.5,0.5c-0.2,0.3,0,0.7-0.3,0.9c0.3,0.6-0.5,0.7-0.3,1.2c0.1,0.2-0.1,0.3-0.2,0.5C73.2,8.6,73,8.9,73.4,9
				c0.8,0,1.6-0.2,2.4-0.1c0.5-0.2,0.9-0.3,1.3-0.6c0.6-0.6,1.6,0.1,2.1-0.6c0.1,0,0.3-0.1,0.3,0.1c-0.4,0.6-0.3,1.4-0.9,1.9
				c0.2,0.5-0.4,0.7-0.6,1.1c-0.5,0.2-0.9-0.2-1.2,0.4c-0.5,0.1-1.3-0.4-1.6,0.3c-0.5,0.1-1,0.2-1.4,0.5c-0.6-0.1-0.9,0.6-1.5,0.5
				c-0.3,0.2-0.9,0.2-0.9,0.8c0.1,0.5-0.3,0.9-0.2,1.4c-0.4,0.4-0.5,1-0.5,1.6c-0.3,0.3,0.1,0.8-0.3,1.1c-0.1,0.2,0.2,0.4-0.1,0.6
				c0.1,0.2,0.1,0.4-0.1,0.5c0.2,0.5,0,1,0,1.6l-0.2,0.2l0,1.6c-0.2,0.3,0,0.6-0.2,0.9c0.1,0.3-0.1,0.7,0.1,0.9
				c-0.1,0.6-0.2,1.2,0,1.8c-0.2,0.3,0.2,0.5,0,0.8c-1-0.3-1.5,0.9-2.4,1.3c-0.6,0.5-1.4,0.8-1.8,1.5c-0.4,0-0.5,0.3-0.9,0.3
				c-0.1,0.6-0.8,0.4-0.9,1c-0.3,0.1-0.3,0.4-0.4,0.5c-0.2,0.1-0.7,0.1-0.5,0.5c0.1,0,0,0.1,0,0.2c-0.2,0.2-0.5,0.1-0.7,0.4
				c-0.3,0.1-0.3,0.6-0.7,0.6c-0.2,0.4-0.8,0.8-0.9,1.3c0.1,0.2,0.4,0.1,0.6,0.1c0.6-0.4,0.9-0.9,1.5-1.4c0.2,0,0.3,0.1,0.2,0.3
				c-0.7,0.3-1,1.1-1.6,1.4l-1,0.3l-0.2,0h-0.2l-0.3,0l-0.5-0.3c0-0.4,0-0.9-0.5-1.2c-0.2,0-0.3,0.2-0.4,0.3
				c-0.3-0.1-0.1-0.3-0.2-0.4c-0.7-0.3-0.3-1.2-0.3-1.6L58.5,30.7z"/>
			<path class="st0" d="M63.6,31.9c0.1-0.1,0.2,0,0.3,0c0.1,0.1,0.1,0.2,0.1,0.2c-0.2,0-0.3,0.2-0.4,0.1
				C63.3,32.2,63.4,32,63.6,31.9z"/>
			<path class="st0" d="M64,30.9c0.1,0,0.2,0,0.3,0.1c0,0.1-0.1,0.2-0.2,0.3C63.9,31.2,63.8,30.9,64,30.9z"/>
			<path class="st0" d="M65,30.1c0.1-0.1,0.1-0.4,0.3-0.4c0.1,0,0.2,0.1,0.2,0.2c-0.3,0.3-0.5,0.5-0.8,0.9c-0.1,0.1-0.3,0.2-0.5,0.1
				C64.4,30.5,64.9,30.5,65,30.1z"/>
		</g>
	</g>
	<rect x="2.7" y="26.6" class="st0" width="0.5" height="14.1"/>
	<g>
		<path class="st0" d="M8.3,28.9l-0.4,0.4c-0.1,0.1-0.1,0.1-0.2,0.1H6.3c-0.1,0-0.2,0-0.2-0.1l-0.4-0.4l0.4-0.4l0.3,0.3
			c0,0,0,0,0.1,0h1.1c0,0,0,0,0.1,0l0.2-0.2c0,0,0,0,0-0.1v-0.3c0,0,0-0.1-0.1-0.1L6,27.9c-0.2,0-0.3-0.2-0.3-0.4V27
			c0-0.1,0-0.2,0.1-0.2l0.4-0.4c0.1-0.1,0.1-0.1,0.2-0.1h1.3c0.1,0,0.2,0,0.2,0.1l0.4,0.4L8,27.1l-0.3-0.3c0,0,0,0-0.1,0H6.5
			c0,0,0,0-0.1,0L6.3,27c0,0,0,0,0,0.1v0.3c0,0,0,0.1,0.1,0.1l1.7,0.2c0.2,0,0.3,0.2,0.3,0.4v0.6C8.4,28.8,8.4,28.8,8.3,28.9z"/>
		<path class="st0" d="M10.9,29.1l-0.2,0.2c-0.1,0.1-0.1,0.1-0.2,0.1h-1c-0.1,0-0.2,0-0.2-0.1L9,29.1c-0.1-0.1-0.1-0.1-0.1-0.2v-1.2
			c0-0.1,0-0.2,0.1-0.2l0.2-0.2c0.1-0.1,0.1-0.1,0.2-0.1h1c0.1,0,0.2,0,0.2,0.1l0.2,0.2c0.1,0.1,0.1,0.1,0.1,0.2v1.2
			C11,28.9,11,29,10.9,29.1z M10.5,27.7C10.5,27.7,10.5,27.7,10.5,27.7L10.5,27.7C10.4,27.6,10.4,27.6,10.5,27.7l-0.9-0.1
			c0,0,0,0-0.1,0l0,0c0,0,0,0,0,0.1v1.1c0,0,0,0,0,0.1l0,0c0,0,0,0,0.1,0h0.8c0,0,0,0,0.1,0l0,0c0,0,0,0,0-0.1V27.7z"/>
		<path class="st0" d="M13.2,29.3c-0.1,0.1-0.1,0.1-0.2,0.1H12c-0.1,0-0.2,0-0.2-0.1l-0.2-0.2c-0.1-0.1-0.1-0.1-0.1-0.2v-1.2
			c0-0.1,0-0.2,0.1-0.2l0.2-0.2c0.1-0.1,0.1-0.1,0.2-0.1h0.9c0.1,0,0.2,0,0.2,0.1l0.3,0.3l-0.3,0.3l-0.2-0.2c0,0,0,0-0.1,0h-0.7
			c0,0,0,0-0.1,0l0,0c0,0,0,0,0,0.1v1.1c0,0,0,0,0,0.1l0,0c0,0,0,0,0.1,0h0.7c0,0,0,0,0.1,0l0.2-0.2l0.3,0.3L13.2,29.3z"/>
		<path class="st0" d="M14,29.4v-1.8h-0.5v-0.5h1v2.3H14z M14,26.7v-0.6h0.6v0.6H14z"/>
		<path class="st0" d="M15.8,28.4v0.4c0,0,0,0,0,0.1l0,0c0,0,0,0,0.1,0h0.8c0,0,0,0,0.1,0l0.2-0.2l0.3,0.3L17,29.3
			c-0.1,0.1-0.1,0.1-0.2,0.1h-1c-0.1,0-0.2,0-0.2-0.1l-0.2-0.2c-0.1-0.1-0.1-0.1-0.1-0.2v-1.2c0-0.1,0-0.2,0.1-0.2l0.2-0.2
			c0.1-0.1,0.1-0.1,0.2-0.1h1c0.1,0,0.2,0,0.2,0.1l0.2,0.2c0.1,0.1,0.1,0.1,0.1,0.2v0.7H15.8z M16.8,27.7
			C16.8,27.7,16.8,27.7,16.8,27.7L16.8,27.7c-0.1-0.1-0.1-0.1-0.1-0.1h-0.8c0,0,0,0-0.1,0l0,0c0,0,0,0,0,0.1V28h1V27.7z M16.4,26.9
			h-0.5l0.7-0.7h0.5L16.4,26.9z"/>
		<path class="st0" d="M18.5,29.4c-0.1,0-0.2,0-0.2-0.1l-0.2-0.2C18,29.1,18,29,18,28.9v-1.3h-0.4v-0.5H18v-0.9h0.5v0.9h0.8v0.5
			h-0.8v1.2c0,0,0,0,0,0.1l0,0c0,0,0,0,0.1,0h0.7v0.5H18.5z"/>
		<path class="st0" d="M20.2,28.4v0.4c0,0,0,0,0,0.1l0,0c0,0,0,0,0.1,0h0.8c0,0,0,0,0.1,0l0.2-0.2l0.3,0.3l-0.3,0.3
			c-0.1,0.1-0.1,0.1-0.2,0.1h-1c-0.1,0-0.2,0-0.2-0.1l-0.2-0.2c-0.1-0.1-0.1-0.1-0.1-0.2v-1.2c0-0.1,0-0.2,0.1-0.2l0.2-0.2
			c0.1-0.1,0.1-0.1,0.2-0.1h1c0.1,0,0.2,0,0.2,0.1l0.2,0.2c0.1,0.1,0.1,0.1,0.1,0.2v0.7H20.2z M21.2,27.7
			C21.2,27.7,21.2,27.7,21.2,27.7L21.2,27.7C21.1,27.6,21.1,27.6,21.2,27.7l-0.9-0.1c0,0,0,0-0.1,0l0,0c0,0,0,0,0,0.1V28h1V27.7z
			 M20.8,26.9h-0.5l0.7-0.7h0.5L20.8,26.9z"/>
		<path class="st0" d="M25,29.4l-0.1-0.3l-0.2,0.2c-0.1,0.1-0.1,0.1-0.2,0.1h-0.6c-0.1,0-0.2,0-0.2-0.1l-0.2-0.2
			c-0.1-0.1-0.1-0.1-0.1-0.2v-1.2c0-0.1,0-0.2,0.1-0.2l0.2-0.2c0.1-0.1,0.1-0.1,0.2-0.1h0.6c0.1,0,0.2,0,0.2,0.1l0.2,0.2v-1.2h0.5
			V29l0.1,0.4H25z M24.9,28C24.9,28,24.9,28,24.9,28l-0.4-0.4c0,0,0,0-0.1,0H24c0,0,0,0-0.1,0l0,0c0,0,0,0,0,0.1v1.1c0,0,0,0,0,0.1
			l0,0c0,0,0,0,0.1,0h0.5c0,0,0,0,0.1,0l0.3-0.3c0,0,0,0,0-0.1V28z"/>
		<path class="st0" d="M26.5,28.4v0.4c0,0,0,0,0,0.1l0,0c0,0,0,0,0.1,0h0.8c0,0,0,0,0.1,0l0.2-0.2l0.3,0.3l-0.3,0.3
			c-0.1,0.1-0.1,0.1-0.2,0.1h-1c-0.1,0-0.2,0-0.2-0.1l-0.2-0.2C26,29,26,28.9,26,28.8v-1.2c0-0.1,0-0.2,0.1-0.2l0.2-0.2
			c0.1-0.1,0.1-0.1,0.2-0.1h1c0.1,0,0.2,0,0.2,0.1l0.2,0.2c0.1,0.1,0.1,0.1,0.1,0.2v0.7H26.5z M27.6,27.7
			C27.6,27.7,27.5,27.7,27.6,27.7L27.6,27.7C27.5,27.6,27.5,27.6,27.6,27.7l-0.9-0.1c0,0,0,0-0.1,0l0,0c0,0,0,0,0,0.1V28h1V27.7z"/>
		<path class="st0" d="M30.4,29.1l-0.2,0.2c-0.1,0.1-0.1,0.1-0.2,0.1h-0.9c-0.1,0-0.2,0-0.2-0.1L28.6,29l0.3-0.3l0.2,0.2
			c0,0,0,0,0.1,0h0.7c0,0,0,0,0.1,0l0,0c0,0,0,0,0-0.1v-0.2c0,0,0-0.1-0.1-0.1l-1-0.1c-0.2,0-0.3-0.2-0.3-0.3v-0.4
			c0-0.1,0-0.2,0.1-0.2l0.2-0.2c0.1-0.1,0.1-0.1,0.2-0.1H30c0.1,0,0.2,0,0.2,0.1l0.3,0.3l-0.3,0.3L30,27.6c0,0,0,0-0.1,0h-0.7
			c0,0,0,0-0.1,0l0,0c0,0,0,0,0,0.1v0.2c0,0,0,0.1,0.1,0.1l1,0.1c0.2,0,0.3,0.2,0.3,0.3v0.4C30.5,28.9,30.5,29,30.4,29.1z"/>
		<path class="st0" d="M34.4,29.4l-0.3-0.8h-1.3l-0.3,0.8H32l1.2-3.2h0.7l1.2,3.2H34.4z M33.5,26.8l-0.4,1.3h0.9L33.5,26.8z"/>
		<path class="st0" d="M37,29.4l-0.1-0.3l-0.2,0.2c-0.1,0.1-0.1,0.1-0.2,0.1H36c-0.1,0-0.2,0-0.2-0.1l-0.2-0.2
			c-0.1-0.1-0.1-0.1-0.1-0.2v-1.7H36v1.7c0,0,0,0,0,0.1l0,0c0,0,0,0,0.1,0h0.3c0,0,0,0,0.1,0l0.4-0.4c0,0,0,0,0-0.1v-1.3h0.5V29
			l0.1,0.4H37z"/>
		<path class="st0" d="M38.8,29.4c-0.1,0-0.2,0-0.2-0.1l-0.2-0.2c-0.1-0.1-0.1-0.1-0.1-0.2v-1.3h-0.4v-0.5h0.4v-0.9h0.5v0.9h0.8v0.5
			h-0.8v1.2c0,0,0,0,0,0.1l0,0c0,0,0,0,0.1,0h0.7v0.5H38.8z"/>
		<path class="st0" d="M40.4,28.4v0.4c0,0,0,0,0,0.1l0,0c0,0,0,0,0.1,0h0.8c0,0,0,0,0.1,0l0.2-0.2L42,29l-0.3,0.3
			c-0.1,0.1-0.1,0.1-0.2,0.1h-1c-0.1,0-0.2,0-0.2-0.1L40,29.1c-0.1-0.1-0.1-0.1-0.1-0.2v-1.2c0-0.1,0-0.2,0.1-0.2l0.2-0.2
			c0.1-0.1,0.1-0.1,0.2-0.1h1c0.1,0,0.2,0,0.2,0.1l0.2,0.2c0.1,0.1,0.1,0.1,0.1,0.2v0.7H40.4z M41.4,27.7
			C41.4,27.7,41.4,27.7,41.4,27.7L41.4,27.7C41.4,27.6,41.4,27.6,41.4,27.7l-0.9-0.1c0,0,0,0-0.1,0l0,0c0,0,0,0,0,0.1V28h1V27.7z"/>
		<path class="st0" d="M44.1,29.4l-0.1-0.3l-0.2,0.2c-0.1,0.1-0.1,0.1-0.2,0.1h-0.5c-0.1,0-0.2,0-0.2-0.1l-0.2-0.2
			c-0.1-0.1-0.1-0.1-0.1-0.2v-1.7h0.5v1.7c0,0,0,0,0,0.1l0,0c0,0,0,0,0.1,0h0.3c0,0,0,0,0.1,0l0.4-0.4c0,0,0,0,0-0.1v-1.3h0.5V29
			l0.1,0.4H44.1z"/>
		<path class="st0" d="M46.6,28v-0.3c0,0,0,0,0-0.1l0,0c0,0,0,0-0.1,0h-0.2c0,0,0,0-0.1,0L45.8,28c0,0,0,0,0,0.1v1.3h-0.5v-1.9
			l-0.1-0.4h0.5l0.1,0.3l0.2-0.2c0.1-0.1,0.1-0.1,0.2-0.1h0.4c0.1,0,0.2,0,0.2,0.1l0.2,0.2c0.1,0.1,0.1,0.1,0.1,0.2V28H46.6z"/>
		<path class="st0" d="M49.4,29.1l-0.2,0.2c-0.1,0.1-0.1,0.1-0.2,0.1H48c-0.1,0-0.2,0-0.2-0.1L47.5,29l0.3-0.3l0.2,0.2
			c0,0,0,0,0.1,0h0.7c0,0,0,0,0.1,0l0,0c0,0,0,0,0-0.1v-0.2c0,0,0-0.1-0.1-0.1l-1-0.1c-0.2,0-0.3-0.2-0.3-0.3v-0.4
			c0-0.1,0-0.2,0.1-0.2l0.2-0.2c0.1-0.1,0.1-0.1,0.2-0.1H49c0.1,0,0.2,0,0.2,0.1l0.3,0.3l-0.3,0.3L49,27.6c0,0,0,0-0.1,0h-0.7
			c0,0,0,0-0.1,0l0,0c0,0,0,0,0,0.1v0.2c0,0,0,0.1,0.1,0.1l1,0.1c0.2,0,0.3,0.2,0.3,0.3v0.4C49.5,28.9,49.5,29,49.4,29.1z"/>
		<path class="st0" d="M50.6,29.9l-0.3,0.3L50,29.9l0.1-0.1c0,0,0,0,0-0.1v-0.9h0.5v0.9C50.7,29.8,50.7,29.8,50.6,29.9z"/>
		<path class="st0" d="M7.8,35c-0.1,0.1-0.1,0.1-0.2,0.1h-1c-0.1,0-0.2,0-0.2-0.1l-0.4-0.4c-0.1-0.1-0.1-0.1-0.1-0.2v-1.7
			c0-0.1,0-0.2,0.1-0.2L6.3,32c0.1-0.1,0.1-0.1,0.2-0.1h1c0.1,0,0.2,0,0.2,0.1l0.4,0.4l-0.4,0.4l-0.3-0.3c0,0,0,0-0.1,0H6.6
			c0,0,0,0-0.1,0l-0.2,0.2c0,0,0,0,0,0.1v1.5c0,0,0,0,0,0.1l0.2,0.2c0,0,0,0,0.1,0h0.8c0,0,0,0,0.1,0l0.3-0.3l0.4,0.4L7.8,35z"/>
		<path class="st0" d="M11.3,34.8L11.1,35c-0.1,0.1-0.1,0.1-0.2,0.1h-1c-0.1,0-0.2,0-0.2-0.1l-0.2-0.2c-0.1-0.1-0.1-0.1-0.1-0.2
			v-1.2c0-0.1,0-0.2,0.1-0.2l0.2-0.2c0.1-0.1,0.1-0.1,0.2-0.1h1c0.1,0,0.2,0,0.2,0.1l0.2,0.2c0.1,0.1,0.1,0.1,0.1,0.2v1.2
			C11.4,34.6,11.4,34.7,11.3,34.8z M10.8,33.4C10.8,33.4,10.8,33.3,10.8,33.4L10.8,33.4C10.8,33.3,10.8,33.3,10.8,33.4l-0.9-0.1
			c0,0,0,0-0.1,0l0,0c0,0,0,0,0,0.1v1.1c0,0,0,0,0,0.1l0,0c0,0,0,0,0.1,0h0.8c0,0,0,0,0.1,0l0,0c0,0,0,0,0-0.1V33.4z"/>
		<path class="st0" d="M15.3,35.1v-1.7c0,0,0,0,0-0.1l0,0c0,0,0,0-0.1,0H15c0,0,0,0-0.1,0l-0.4,0.4c0,0,0,0,0,0.1v1.3H14v-1.7
			c0,0,0,0,0-0.1l0,0c0,0,0,0-0.1,0h-0.2c0,0,0,0-0.1,0l-0.4,0.4c0,0,0,0,0,0.1v1.3h-0.5v-1.9l-0.1-0.4h0.5l0.1,0.3l0.2-0.2
			c0.1-0.1,0.1-0.1,0.2-0.1H14c0.1,0,0.2,0,0.2,0.1l0.2,0.2l0.2-0.2c0.1-0.1,0.1-0.1,0.2-0.1h0.3c0.1,0,0.2,0,0.2,0.1l0.2,0.2
			c0.1,0.1,0.1,0.1,0.1,0.2v1.7H15.3z"/>
		<path class="st0" d="M19.3,34.8L19.1,35c-0.1,0.1-0.1,0.1-0.2,0.1h-0.6c-0.1,0-0.2,0-0.2-0.1l-0.2-0.2V36h-0.5v-2.8l-0.1-0.4h0.5
			l0.1,0.3l0.2-0.2c0.1-0.1,0.1-0.1,0.2-0.1h0.6c0.1,0,0.2,0,0.2,0.1l0.2,0.2c0.1,0.1,0.1,0.1,0.1,0.2v1.2
			C19.4,34.6,19.4,34.7,19.3,34.8z M18.9,33.4C18.9,33.4,18.8,33.3,18.9,33.4L18.9,33.4C18.8,33.3,18.8,33.3,18.9,33.4l-0.6-0.1
			c0,0,0,0-0.1,0l-0.3,0.3c0,0,0,0,0,0.1v0.4c0,0,0,0,0,0.1l0.3,0.3c0,0,0,0,0.1,0h0.5c0,0,0,0,0.1,0l0,0c0,0,0,0,0-0.1V33.4z"/>
		<path class="st0" d="M22.6,34.8L22.4,35c-0.1,0.1-0.1,0.1-0.2,0.1h-1c-0.1,0-0.2,0-0.2-0.1l-0.2-0.2c-0.1-0.1-0.1-0.1-0.1-0.2
			v-1.2c0-0.1,0-0.2,0.1-0.2l0.2-0.2c0.1-0.1,0.1-0.1,0.2-0.1h1c0.1,0,0.2,0,0.2,0.1l0.2,0.2c0.1,0.1,0.1,0.1,0.1,0.2v1.2
			C22.7,34.6,22.7,34.7,22.6,34.8z M22.1,33.4C22.1,33.4,22.1,33.3,22.1,33.4L22.1,33.4C22.1,33.3,22.1,33.3,22.1,33.4l-0.9-0.1
			c0,0,0,0-0.1,0l0,0c0,0,0,0,0,0.1v1.1c0,0,0,0,0,0.1l0,0c0,0,0,0,0.1,0H22c0,0,0,0,0.1,0l0,0c0,0,0,0,0-0.1V33.4z"/>
		<path class="st0" d="M25.7,34.8L25.5,35c-0.1,0.1-0.1,0.1-0.2,0.1h-0.9c-0.1,0-0.2,0-0.2-0.1l-0.3-0.3l0.3-0.3l0.2,0.2
			c0,0,0,0,0.1,0h0.7c0,0,0,0,0.1,0l0,0c0,0,0,0,0-0.1v-0.2c0,0,0-0.1-0.1-0.1l-1-0.1c-0.2,0-0.3-0.2-0.3-0.3v-0.4
			c0-0.1,0-0.2,0.1-0.2l0.2-0.2c0.1-0.1,0.1-0.1,0.2-0.1h0.9c0.1,0,0.2,0,0.2,0.1l0.3,0.3l-0.3,0.3l-0.2-0.2c0,0,0,0-0.1,0h-0.7
			c0,0,0,0-0.1,0l0,0c0,0,0,0,0,0.1v0.2c0,0,0,0.1,0.1,0.1l1,0.1c0.2,0,0.3,0.2,0.3,0.3v0.4C25.8,34.6,25.8,34.7,25.7,34.8z"/>
		<path class="st0" d="M27.3,35.1v-1.8h-0.5v-0.5h1v2.3H27.3z M27.2,32.4v-0.6h0.6v0.6H27.2z"/>
		<path class="st0" d="M29.9,35.1c-0.1,0-0.2,0-0.2-0.1l-0.2-0.2c-0.1-0.1-0.1-0.1-0.1-0.2v-1.3H29v-0.5h0.4v-0.9h0.5v0.9h0.8v0.5
			h-0.8v1.2c0,0,0,0,0,0.1l0,0c0,0,0,0,0.1,0h0.7v0.5H29.9z"/>
		<path class="st0" d="M32.3,34.1v0.4c0,0,0,0,0,0.1l0,0c0,0,0,0,0.1,0h0.8c0,0,0,0,0.1,0l0.2-0.2l0.3,0.3L33.5,35
			c-0.1,0.1-0.1,0.1-0.2,0.1h-1c-0.1,0-0.2,0-0.2-0.1l-0.2-0.2c-0.1-0.1-0.1-0.1-0.1-0.2v-1.2c0-0.1,0-0.2,0.1-0.2l0.2-0.2
			c0.1-0.1,0.1-0.1,0.2-0.1h1c0.1,0,0.2,0,0.2,0.1l0.2,0.2c0.1,0.1,0.1,0.1,0.1,0.2v0.7H32.3z M33.3,33.4
			C33.3,33.4,33.3,33.3,33.3,33.4L33.3,33.4C33.3,33.3,33.2,33.3,33.3,33.4l-0.9-0.1c0,0,0,0-0.1,0l0,0c0,0,0,0,0,0.1v0.3h1V33.4z"
			/>
		<path class="st0" d="M36.7,35.1l-0.1-0.3L36.4,35c-0.1,0.1-0.1,0.1-0.2,0.1h-0.5c-0.1,0-0.2,0-0.2-0.1l-0.2-0.2
			c-0.1-0.1-0.1-0.1-0.1-0.2v-1.7h0.5v1.7c0,0,0,0,0,0.1l0,0c0,0,0,0,0.1,0h0.3c0,0,0,0,0.1,0l0.4-0.4c0,0,0,0,0-0.1v-1.3h0.5v1.9
			l0.1,0.4H36.7z"/>
		<path class="st0" d="M40,33.7v-0.3c0,0,0,0,0-0.1l0,0c0,0,0,0-0.1,0h-0.2c0,0,0,0-0.1,0l-0.4,0.4c0,0,0,0,0,0.1v1.3h-0.5v-1.9
			l-0.1-0.4H39l0.1,0.3l0.2-0.2c0.1-0.1,0.1-0.1,0.2-0.1h0.4c0.1,0,0.2,0,0.2,0.1l0.2,0.2c0.1,0.1,0.1,0.1,0.1,0.2v0.4H40z"/>
		<path class="st0" d="M43.5,34.8L43.3,35c-0.1,0.1-0.1,0.1-0.2,0.1h-0.9c-0.1,0-0.2,0-0.2-0.1l-0.3-0.3l0.3-0.3l0.2,0.2
			c0,0,0,0,0.1,0h0.7c0,0,0,0,0.1,0l0,0c0,0,0,0,0-0.1v-0.2c0,0,0-0.1-0.1-0.1l-1-0.1c-0.2,0-0.3-0.2-0.3-0.3v-0.4
			c0-0.1,0-0.2,0.1-0.2l0.2-0.2c0.1-0.1,0.1-0.1,0.2-0.1h0.9c0.1,0,0.2,0,0.2,0.1l0.3,0.3l-0.3,0.3L43,33.3c0,0,0,0-0.1,0h-0.7
			c0,0,0,0-0.1,0l0,0c0,0,0,0,0,0.1v0.2c0,0,0,0.1,0.1,0.1l1,0.1c0.2,0,0.3,0.2,0.3,0.3v0.4C43.6,34.6,43.5,34.7,43.5,34.8z"/>
		<path class="st0" d="M46.9,34.1v0.4c0,0,0,0,0,0.1l0,0c0,0,0,0,0.1,0h0.8c0,0,0,0,0.1,0l0.2-0.2l0.3,0.3L48.1,35
			c-0.1,0.1-0.1,0.1-0.2,0.1h-1c-0.1,0-0.2,0-0.2-0.1l-0.2-0.2c-0.1-0.1-0.1-0.1-0.1-0.2v-1.2c0-0.1,0-0.2,0.1-0.2l0.2-0.2
			c0.1-0.1,0.1-0.1,0.2-0.1h1c0.1,0,0.2,0,0.2,0.1l0.2,0.2c0.1,0.1,0.1,0.1,0.1,0.2v0.7H46.9z M47.9,33.4
			C47.9,33.4,47.9,33.3,47.9,33.4L47.9,33.4C47.9,33.3,47.8,33.3,47.9,33.4L47,33.3c0,0,0,0-0.1,0l0,0c0,0,0,0,0,0.1v0.3h1V33.4z"/>
		<path class="st0" d="M50.2,35.1c-0.1,0-0.2,0-0.2-0.1l-0.2-0.2c-0.1-0.1-0.1-0.1-0.1-0.2v-1.3h-0.4v-0.5h0.4v-0.9h0.5v0.9H51v0.5
			h-0.8v1.2c0,0,0,0,0,0.1l0,0c0,0,0,0,0.1,0H51v0.5H50.2z"/>
		<path class="st0" d="M5.9,40.8v-3.2H8v0.5H6.5v0.8H8v0.5H6.5v0.8H8v0.5H5.9z M7,37.3H6.4l0.7-0.7h0.5L7,37.3z"/>
		<path class="st0" d="M10.3,40.8l-0.1-0.3L10,40.7c-0.1,0.1-0.1,0.1-0.2,0.1H9.2c-0.1,0-0.2,0-0.2-0.1l-0.2-0.2
			c-0.1-0.1-0.1-0.1-0.1-0.2v-1.2c0-0.1,0-0.2,0.1-0.2l0.2-0.2c0.1-0.1,0.1-0.1,0.2-0.1h0.6c0.1,0,0.2,0,0.2,0.1l0.2,0.2v-1.2h0.5
			v2.8l0.1,0.4H10.3z M10.2,39.4C10.2,39.4,10.2,39.4,10.2,39.4L9.8,39c0,0,0,0-0.1,0H9.3c0,0,0,0-0.1,0l0,0c0,0,0,0,0,0.1v1.1
			c0,0,0,0,0,0.1l0,0c0,0,0,0,0.1,0h0.5c0,0,0,0,0.1,0l0.3-0.3c0,0,0,0,0-0.1V39.4z"/>
		<path class="st0" d="M11.6,40.8V39h-0.5v-0.5h1v2.3H11.6z M11.5,38.1v-0.6h0.6v0.6H11.5z"/>
		<path class="st0" d="M13.5,40.8c-0.1,0-0.2,0-0.2-0.1l-0.2-0.2C13,40.4,13,40.3,13,40.2V39h-0.4v-0.5H13v-0.9h0.5v0.9h0.8V39h-0.8
			v1.2c0,0,0,0,0,0.1l0,0c0,0,0,0,0.1,0h0.7v0.5H13.5z"/>
		<path class="st0" d="M15.2,39.8v0.4c0,0,0,0,0,0.1l0,0c0,0,0,0,0.1,0h0.8c0,0,0,0,0.1,0l0.2-0.2l0.3,0.3l-0.3,0.3
			c-0.1,0.1-0.1,0.1-0.2,0.1h-1c-0.1,0-0.2,0-0.2-0.1l-0.2-0.2c-0.1-0.1-0.1-0.1-0.1-0.2v-1.2c0-0.1,0-0.2,0.1-0.2l0.2-0.2
			c0.1-0.1,0.1-0.1,0.2-0.1h1c0.1,0,0.2,0,0.2,0.1l0.2,0.2c0.1,0.1,0.1,0.1,0.1,0.2v0.7H15.2z M16.2,39.1
			C16.2,39.1,16.2,39,16.2,39.1L16.2,39.1C16.1,39,16.1,39,16.2,39.1L15.3,39c0,0,0,0-0.1,0l0,0c0,0,0,0,0,0.1v0.3h1V39.1z"/>
		<path class="st0" d="M18.9,40.8l-0.1-0.3l-0.2,0.2c-0.1,0.1-0.1,0.1-0.2,0.1h-0.5c-0.1,0-0.2,0-0.2-0.1l-0.2-0.2
			c-0.1-0.1-0.1-0.1-0.1-0.2v-1.7h0.5v1.7c0,0,0,0,0,0.1l0,0c0,0,0,0,0.1,0h0.3c0,0,0,0,0.1,0l0.4-0.4c0,0,0,0,0-0.1v-1.3h0.5v1.9
			l0.1,0.4H18.9z"/>
		<path class="st0" d="M21.4,39.4v-0.3c0,0,0,0,0-0.1l0,0c0,0,0,0-0.1,0h-0.2c0,0,0,0-0.1,0l-0.4,0.4c0,0,0,0,0,0.1v1.4h-0.5v-1.9
			L20,38.5h0.5l0.1,0.3l0.2-0.2c0.1-0.1,0.1-0.1,0.2-0.1h0.4c0.1,0,0.2,0,0.2,0.1l0.2,0.2c0.1,0.1,0.1,0.1,0.1,0.2v0.4H21.4z"/>
		<path class="st0" d="M24.2,40.5L24,40.7c-0.1,0.1-0.1,0.1-0.2,0.1h-0.9c-0.1,0-0.2,0-0.2-0.1l-0.3-0.3l0.3-0.3l0.2,0.2
			c0,0,0,0,0.1,0h0.7c0,0,0,0,0.1,0l0,0c0,0,0,0,0-0.1V40c0,0,0-0.1-0.1-0.1l-1-0.1c-0.2,0-0.3-0.2-0.3-0.3v-0.4
			c0-0.1,0-0.2,0.1-0.2l0.2-0.2c0.1-0.1,0.1-0.1,0.2-0.1h0.9c0.1,0,0.2,0,0.2,0.1l0.3,0.3L24,39.2L23.8,39c0,0,0,0-0.1,0H23
			c0,0,0,0-0.1,0l0,0c0,0,0,0,0,0.1v0.2c0,0,0,0.1,0.1,0.1l1,0.1c0.2,0,0.3,0.2,0.3,0.3v0.4C24.3,40.3,24.3,40.4,24.2,40.5z"/>
		<path class="st0" d="M27.7,40.8l-0.1-0.3l-0.2,0.2c-0.1,0.1-0.1,0.1-0.2,0.1h-0.6c-0.1,0-0.2,0-0.2-0.1l-0.2-0.2
			C26,40.4,26,40.3,26,40.2v-1.2c0-0.1,0-0.2,0.1-0.2l0.2-0.2c0.1-0.1,0.1-0.1,0.2-0.1h0.6c0.1,0,0.2,0,0.2,0.1l0.2,0.2v-1.2h0.5
			v2.8l0.1,0.4H27.7z M27.6,39.4C27.6,39.4,27.6,39.4,27.6,39.4L27.2,39c0,0,0,0-0.1,0h-0.5c0,0,0,0-0.1,0l0,0c0,0,0,0,0,0.1v1.1
			c0,0,0,0,0,0.1l0,0c0,0,0,0,0.1,0h0.5c0,0,0,0,0.1,0l0.3-0.3c0,0,0,0,0-0.1V39.4z"/>
		<path class="st0" d="M29.3,39.8v0.4c0,0,0,0,0,0.1l0,0c0,0,0,0,0.1,0h0.8c0,0,0,0,0.1,0l0.2-0.2l0.3,0.3l-0.3,0.3
			c-0.1,0.1-0.1,0.1-0.2,0.1h-1c-0.1,0-0.2,0-0.2-0.1l-0.2-0.2c-0.1-0.1-0.1-0.1-0.1-0.2v-1.2c0-0.1,0-0.2,0.1-0.2l0.2-0.2
			c0.1-0.1,0.1-0.1,0.2-0.1h1c0.1,0,0.2,0,0.2,0.1l0.2,0.2c0.1,0.1,0.1,0.1,0.1,0.2v0.7H29.3z M30.3,39.1
			C30.3,39.1,30.3,39,30.3,39.1L30.3,39.1C30.2,39,30.2,39,30.2,39h-0.8c0,0,0,0-0.1,0l0,0c0,0,0,0,0,0.1v0.3h1V39.1z"/>
		<path class="st0" d="M35.5,40.8v-2.5l-0.8,2.5h-0.6l-0.8-2.5v2.5h-0.6v-3.2h0.9l0.7,2.4l0.7-2.4H36v3.2H35.5z"/>
		<path class="st0" d="M38.4,40.8l-0.1-0.3l-0.2,0.2c-0.1,0.1-0.1,0.1-0.2,0.1h-0.5c-0.1,0-0.2,0-0.2-0.1L37,40.5
			c-0.1-0.1-0.1-0.1-0.1-0.2v-1.7h0.5v1.7c0,0,0,0,0,0.1l0,0c0,0,0,0,0.1,0h0.3c0,0,0,0,0.1,0l0.4-0.4c0,0,0,0,0-0.1v-1.3h0.5v1.9
			l0.1,0.4H38.4z"/>
		<path class="st0" d="M41.3,40.5l-0.2,0.2c-0.1,0.1-0.1,0.1-0.2,0.1H40c-0.1,0-0.2,0-0.2-0.1l-0.3-0.3l0.3-0.3l0.2,0.2
			c0,0,0,0,0.1,0h0.7c0,0,0,0,0.1,0l0,0c0,0,0,0,0-0.1V40c0,0,0-0.1-0.1-0.1l-1-0.1c-0.2,0-0.3-0.2-0.3-0.3v-0.4
			c0-0.1,0-0.2,0.1-0.2l0.2-0.2c0.1-0.1,0.1-0.1,0.2-0.1h0.9c0.1,0,0.2,0,0.2,0.1l0.3,0.3l-0.3,0.3L40.9,39c0,0,0,0-0.1,0h-0.7
			c0,0,0,0-0.1,0l0,0c0,0,0,0,0,0.1v0.2c0,0,0,0.1,0.1,0.1l1,0.1c0.2,0,0.3,0.2,0.3,0.3v0.4C41.4,40.3,41.4,40.4,41.3,40.5z"/>
		<path class="st0" d="M42.2,40.8V39h-0.5v-0.5h1v2.3H42.2z M42.1,38.1v-0.6h0.6v0.6H42.1z"/>
		<path class="st0" d="M45.4,38.9v2.8h-0.5v-1.2l-0.2,0.2c-0.1,0.1-0.1,0.1-0.2,0.1h-0.6c-0.1,0-0.2,0-0.2-0.1l-0.2-0.2
			c-0.1-0.1-0.1-0.1-0.1-0.2v-1.2c0-0.1,0-0.2,0.1-0.2l0.2-0.2c0.1-0.1,0.1-0.1,0.2-0.1h0.6c0.1,0,0.2,0,0.2,0.1l0.2,0.2l0.1-0.3
			h0.5L45.4,38.9z M44.9,39.4C44.9,39.4,44.9,39.4,44.9,39.4L44.5,39c0,0,0,0-0.1,0H44c0,0,0,0-0.1,0l0,0c0,0,0,0,0,0.1v1.1
			c0,0,0,0,0,0.1l0,0c0,0,0,0,0.1,0h0.5c0,0,0,0,0.1,0l0.3-0.3c0,0,0,0,0-0.1V39.4z"/>
		<path class="st0" d="M47.7,40.8l-0.1-0.3l-0.2,0.2c-0.1,0.1-0.1,0.1-0.2,0.1h-0.5c-0.1,0-0.2,0-0.2-0.1l-0.2-0.2
			c-0.1-0.1-0.1-0.1-0.1-0.2v-1.7h0.5v1.7c0,0,0,0,0,0.1l0,0c0,0,0,0,0.1,0h0.3c0,0,0,0,0.1,0l0.4-0.4c0,0,0,0,0-0.1v-1.3h0.5v1.9
			l0.1,0.4H47.7z"/>
		<path class="st0" d="M49.3,39.8v0.4c0,0,0,0,0,0.1l0,0c0,0,0,0,0.1,0h0.8c0,0,0,0,0.1,0l0.2-0.2l0.3,0.3l-0.3,0.3
			c-0.1,0.1-0.1,0.1-0.2,0.1h-1c-0.1,0-0.2,0-0.2-0.1l-0.2-0.2c-0.1-0.1-0.1-0.1-0.1-0.2v-1.2c0-0.1,0-0.2,0.1-0.2l0.2-0.2
			c0.1-0.1,0.1-0.1,0.2-0.1h1c0.1,0,0.2,0,0.2,0.1l0.2,0.2c0.1,0.1,0.1,0.1,0.1,0.2v0.7H49.3z M50.3,39.1
			C50.3,39.1,50.3,39,50.3,39.1L50.3,39.1C50.3,39,50.2,39,50.3,39.1L49.4,39c0,0,0,0-0.1,0l0,0c0,0,0,0,0,0.1v0.3h1V39.1z"/>
	</g>
</g>
</svg>
