<?xml version="1.0" encoding="UTF-8" standalone="no"?><!DOCTYPE svg PUBLIC "-//W3C//DTD SVG 1.1//EN" "http://www.w3.org/Graphics/SVG/1.1/DTD/svg11.dtd"><svg width="100%" height="100%" viewBox="0 0 25 18" version="1.1" xmlns="http://www.w3.org/2000/svg" xmlns:xlink="http://www.w3.org/1999/xlink" xml:space="preserve" style="fill-rule:evenodd;clip-rule:evenodd;stroke-linejoin:round;stroke-miterlimit:1.41421;"><path d="M12.708,0c-0.312,0 -0.584,0.114 -0.812,0.343l-6.011,3.847l-4.73,0c-0.312,0 -0.584,0.115 -0.812,0.342c-0.229,0.23 -0.343,0.5 -0.343,0.814l0,6.931c0,0.314 0.114,0.584 0.343,0.813c0.228,0.228 0.5,0.343 0.812,0.343l4.73,0l6.011,3.847c0.229,0.229 0.5,0.343 0.813,0.343c0.312,0 0.583,-0.114 0.811,-0.343c0.229,-0.228 0.343,-0.499 0.343,-0.812l0,-15.313c0,-0.312 -0.114,-0.583 -0.343,-0.812c-0.228,-0.229 -0.499,-0.343 -0.812,-0.343" style="fill:#fff;fill-rule:nonzero;"/><path d="M19.189,11.365c0.513,-0.788 0.768,-1.639 0.768,-2.555c0,-0.914 -0.255,-1.768 -0.768,-2.562c-0.511,-0.794 -1.187,-1.354 -2.03,-1.679c-0.12,-0.06 -0.271,-0.091 -0.452,-0.091c-0.313,0 -0.583,0.112 -0.812,0.334c-0.228,0.224 -0.343,0.496 -0.343,0.822c0,0.252 0.073,0.466 0.217,0.64c0.145,0.176 0.319,0.326 0.524,0.452c0.204,0.127 0.409,0.265 0.614,0.415c0.204,0.151 0.379,0.365 0.523,0.642c0.145,0.276 0.217,0.619 0.217,1.028c0,0.41 -0.072,0.752 -0.217,1.029c-0.144,0.277 -0.319,0.491 -0.523,0.641c-0.205,0.15 -0.41,0.288 -0.614,0.415c-0.205,0.126 -0.379,0.277 -0.524,0.452c-0.144,0.174 -0.217,0.387 -0.217,0.641c0,0.325 0.115,0.599 0.343,0.821c0.229,0.223 0.499,0.334 0.812,0.334c0.181,0 0.332,-0.029 0.452,-0.091c0.843,-0.336 1.519,-0.899 2.03,-1.688" style="fill:#fff;fill-rule:nonzero;"/><path d="M18.982,0.31c-0.156,-0.061 -0.313,-0.091 -0.469,-0.091c-0.313,0 -0.584,0.114 -0.812,0.343c-0.229,0.228 -0.343,0.499 -0.343,0.812c0,0.47 0.234,0.825 0.704,1.066c0.674,0.349 1.131,0.613 1.372,0.793c0.89,0.65 1.585,1.467 2.085,2.446c0.499,0.983 0.748,2.026 0.748,3.132c0,1.108 -0.249,2.151 -0.748,3.133c-0.5,0.981 -1.195,1.797 -2.085,2.446c-0.241,0.181 -0.698,0.444 -1.372,0.794c-0.47,0.241 -0.704,0.597 -0.704,1.065c0,0.314 0.114,0.584 0.343,0.813c0.228,0.229 0.505,0.344 0.83,0.344c0.144,0 0.295,-0.031 0.451,-0.091c1.686,-0.71 3.039,-1.844 4.062,-3.403c1.022,-1.559 1.534,-3.259 1.534,-5.1c0,-1.841 -0.512,-3.541 -1.534,-5.1c-1.023,-1.559 -2.376,-2.693 -4.062,-3.402" style="fill:#fff;fill-rule:nonzero;"/></svg>